<svg width="40" height="40" viewBox="0 0 41 40" fill="none" xmlns="http://www.w3.org/2000/svg">
<path d="M20.4299 0.280762C9.27535 0.280762 0.599609 9.23637 0.599609 20.7507C0.599609 34.1841 12.3738 39.9413 14.2329 39.9413C15.4723 39.9413 15.4723 39.3016 15.4723 38.6619V35.4635C11.1344 36.7429 9.27535 34.1841 8.65566 32.2651C8.65566 32.2651 8.65566 31.6254 7.41627 30.346C6.79657 29.7063 4.31779 28.427 6.79657 28.427C8.65566 28.427 9.89505 30.9857 9.89505 30.9857C11.7541 33.5444 14.2329 32.9048 15.4723 32.2651C15.4723 30.9857 16.7117 29.7063 16.7117 29.7063C11.7541 29.0666 8.03596 27.1476 8.03596 20.111C8.03596 17.5523 8.65566 15.6332 9.89505 14.3539C9.89505 14.3539 8.65566 11.7951 9.89505 8.59668C9.89505 8.59668 12.9935 8.59668 15.4723 11.1554C17.3314 9.87605 23.5284 9.87605 25.3875 11.1554C27.8662 8.59668 30.9647 8.59668 30.9647 8.59668C32.2041 13.0745 30.9647 14.3539 30.9647 14.3539C32.2041 15.6332 32.8238 17.5523 32.8238 20.111C32.8238 27.1476 28.4859 29.0666 24.1481 29.7063C24.7678 30.346 25.3875 31.6254 25.3875 33.5444V38.6619C25.3875 39.3016 25.3875 39.9413 26.6268 39.9413C28.4859 39.9413 40.2602 34.1841 40.2602 20.7507C40.2602 9.23637 31.5844 0.280762 20.4299 0.280762Z" fill="black"/>
</svg>
