<svg width="32" height="32" viewBox="0 0 32 32" fill="none" xmlns="http://www.w3.org/2000/svg">
<path d="M15.9976 12.9987C14.345 12.9987 12.9964 14.3474 12.9964 16C12.9964 17.6526 14.345 19.0013 15.9976 19.0013C17.6502 19.0013 18.9988 17.6526 18.9988 16C18.9988 14.3474 17.6502 12.9987 15.9976 12.9987ZM24.999 16C24.999 14.7572 25.0103 13.5256 24.9405 12.285C24.8707 10.844 24.5419 9.56515 23.4883 8.51144C22.4323 7.45548 21.1557 7.12901 19.7148 7.05921C18.472 6.98941 17.2404 7.00067 15.9998 7.00067C14.757 7.00067 13.5255 6.98941 12.2849 7.05921C10.8439 7.12901 9.5651 7.45773 8.51141 8.51144C7.45547 9.5674 7.129 10.844 7.05921 12.285C6.98941 13.5278 7.00067 14.7594 7.00067 16C7.00067 17.2406 6.98941 18.4744 7.05921 19.715C7.129 21.156 7.45772 22.4348 8.51141 23.4886C9.56736 24.5445 10.8439 24.871 12.2849 24.9408C13.5277 25.0106 14.7593 24.9993 15.9998 24.9993C17.2426 24.9993 18.4742 25.0106 19.7148 24.9408C21.1557 24.871 22.4346 24.5423 23.4883 23.4886C24.5442 22.4326 24.8707 21.156 24.9405 19.715C25.0125 18.4744 24.999 17.2428 24.999 16ZM15.9976 20.6179C13.4422 20.6179 11.3798 18.5555 11.3798 16C11.3798 13.4445 13.4422 11.3821 15.9976 11.3821C18.553 11.3821 20.6154 13.4445 20.6154 16C20.6154 18.5555 18.553 20.6179 15.9976 20.6179ZM20.8045 12.2715C20.2078 12.2715 19.726 11.7897 19.726 11.193C19.726 10.5963 20.2078 10.1145 20.8045 10.1145C21.4011 10.1145 21.8829 10.5963 21.8829 11.193C21.8831 11.3347 21.8554 11.475 21.8012 11.6059C21.7471 11.7369 21.6677 11.8558 21.5675 11.956C21.4673 12.0562 21.3483 12.1356 21.2174 12.1897C21.0865 12.2439 20.9462 12.2717 20.8045 12.2715Z" fill="url(#paint0_linear)"/>
<path d="M16 32C7.17723 32 0 24.8228 0 16C0 7.17723 7.17723 0 16 0C24.8228 0 32 7.17723 32 16C32 24.8228 24.8228 32 16 32ZM16 1.23077C7.85662 1.23077 1.23077 7.85662 1.23077 16C1.23077 24.1434 7.85662 30.7692 16 30.7692C24.1434 30.7692 30.7692 24.1434 30.7692 16C30.7692 7.85662 24.1434 1.23077 16 1.23077Z" fill="url(#paint1_linear)"/>
<defs>
<linearGradient id="paint0_linear" x1="16" y1="7" x2="16.0001" y2="34.0519" gradientUnits="userSpaceOnUse">
<stop offset="0.0759424" stop-color="#E480E5"/>
<stop offset="0.234217" stop-color="#E480E5"/>
<stop offset="0.663437" stop-color="#9349DD"/>
<stop offset="0.781473" stop-color="#9349DD"/>
</linearGradient>
<linearGradient id="paint1_linear" x1="16" y1="0" x2="16.0001" y2="48.0923" gradientUnits="userSpaceOnUse">
<stop offset="0.0759424" stop-color="#E480E5"/>
<stop offset="0.234217" stop-color="#E480E5"/>
<stop offset="0.663437" stop-color="#9349DD"/>
<stop offset="0.781473" stop-color="#9349DD"/>
</linearGradient>
</defs>
</svg>
