<svg width="32" height="32" viewBox="0 0 32 32" fill="none" xmlns="http://www.w3.org/2000/svg">
<path d="M12.3469 24.0018C19.7783 24.0018 23.8423 17.8449 23.8423 12.5064C23.8423 12.3316 23.8386 12.1575 23.8306 11.984C24.6195 11.4135 25.3051 10.7021 25.846 9.89226C25.1223 10.2141 24.3432 10.4307 23.526 10.5286C24.3598 10.0283 25.0004 9.23688 25.3026 8.29349C24.5217 8.75626 23.6577 9.09288 22.7371 9.27442C21.9998 8.48918 20.95 7.99811 19.7881 7.99811C17.5568 7.99811 15.7475 9.80734 15.7475 12.0381C15.7475 12.355 15.7832 12.6633 15.8521 12.9593C12.4946 12.7907 9.51676 11.1827 7.52476 8.73842C7.17768 9.33534 6.97768 10.0289 6.97768 10.7692C6.97768 12.171 7.69091 13.4086 8.77583 14.1323C8.11307 14.112 7.4903 13.9298 6.94568 13.627C6.94507 13.6436 6.94507 13.6609 6.94507 13.6787C6.94507 15.6356 8.33768 17.2689 10.1863 17.6393C9.84722 17.7316 9.48968 17.7815 9.12107 17.7815C8.86076 17.7815 8.60783 17.7556 8.36168 17.7089C8.87614 19.3138 10.3672 20.4818 12.1358 20.515C10.7531 21.5987 9.01091 22.2443 7.11799 22.2443C6.79184 22.2443 6.4706 22.2258 6.1543 22.1883C7.94199 23.3329 10.0651 24.0018 12.3469 24.0018Z" fill="url(#paint0_linear)"/>
<path d="M16 32C7.17723 32 0 24.8228 0 16C0 7.17723 7.17723 0 16 0C24.8228 0 32 7.17723 32 16C32 24.8228 24.8228 32 16 32ZM16 1.23077C7.85662 1.23077 1.23077 7.85662 1.23077 16C1.23077 24.1434 7.85662 30.7692 16 30.7692C24.1434 30.7692 30.7692 24.1434 30.7692 16C30.7692 7.85662 24.1434 1.23077 16 1.23077Z" fill="url(#paint1_linear)"/>
<defs>
<linearGradient id="paint0_linear" x1="16.0001" y1="7.67803" x2="16.0001" y2="24.3219" gradientUnits="userSpaceOnUse">
<stop stop-color="#1A6DFF"/>
<stop offset="1" stop-color="#C822FF"/>
</linearGradient>
<linearGradient id="paint1_linear" x1="16" y1="-0.64" x2="16" y2="32.64" gradientUnits="userSpaceOnUse">
<stop stop-color="#1A6DFF"/>
<stop offset="1" stop-color="#C822FF"/>
</linearGradient>
</defs>
</svg>
