<svg width="32" height="32" viewBox="0 0 32 32" fill="none" xmlns="http://www.w3.org/2000/svg">
<path d="M20.6768 10.4416H11.3232C9.488 10.4416 8 11.9136 8 13.728V18.352C8 20.168 9.488 21.6384 11.3232 21.6384H20.6768C22.512 21.6384 24 20.1664 24 18.352V13.728C24 11.912 22.512 10.4416 20.6768 10.4416ZM18.4304 16.2656L14.0544 18.3296C14.0276 18.3422 13.9981 18.3479 13.9685 18.3461C13.939 18.3443 13.9104 18.3351 13.8853 18.3193C13.8603 18.3035 13.8396 18.2817 13.8253 18.2558C13.8109 18.2299 13.8033 18.2008 13.8032 18.1712V13.9152C13.8035 13.8852 13.8114 13.8558 13.8262 13.8297C13.8411 13.8036 13.8623 13.7818 13.888 13.7663C13.9136 13.7507 13.9428 13.742 13.9728 13.7409C14.0027 13.7398 14.0325 13.7464 14.0592 13.76L18.4336 15.952C18.4624 15.967 18.4864 15.9897 18.5031 16.0176C18.5198 16.0454 18.5284 16.0773 18.5281 16.1098C18.5277 16.1422 18.5184 16.174 18.5012 16.2015C18.484 16.229 18.4595 16.2511 18.4304 16.2656Z" fill="url(#paint0_linear)"/>
<path d="M16 32C7.17723 32 0 24.8228 0 16C0 7.17723 7.17723 0 16 0C24.8228 0 32 7.17723 32 16C32 24.8228 24.8228 32 16 32ZM16 1.23077C7.85662 1.23077 1.23077 7.85662 1.23077 16C1.23077 24.1434 7.85662 30.7692 16 30.7692C24.1434 30.7692 30.7692 24.1434 30.7692 16C30.7692 7.85662 24.1434 1.23077 16 1.23077Z" fill="url(#paint1_linear)"/>
<defs>
<linearGradient id="paint0_linear" x1="16" y1="10.2177" x2="16" y2="21.8623" gradientUnits="userSpaceOnUse">
<stop stop-color="#1A6DFF"/>
<stop offset="1" stop-color="#C822FF"/>
</linearGradient>
<linearGradient id="paint1_linear" x1="16" y1="-0.64" x2="16" y2="32.64" gradientUnits="userSpaceOnUse">
<stop stop-color="#1A6DFF"/>
<stop offset="1" stop-color="#C822FF"/>
</linearGradient>
</defs>
</svg>
