<svg width="48" height="48" viewBox="0 0 48 48" fill="none" xmlns="http://www.w3.org/2000/svg">
<path d="M48 24C48 26.5146 47.6131 28.9381 46.896 31.2157C46.128 33.6568 44.9799 35.9295 43.5213 37.9651C43.1109 38.5371 42.6769 39.0906 42.2184 39.6235C41.998 39.8811 41.7727 40.1329 41.5406 40.3797C40.9136 41.0518 40.2485 41.6875 39.5471 42.2831C39.3247 42.4731 39.0984 42.6593 38.8692 42.8395C37.4145 43.9895 35.8237 44.974 34.1241 45.7665C33.9419 45.8518 33.7587 45.934 33.5736 46.0144C33.5579 46.0212 33.5422 46.0281 33.5265 46.0349C33.1308 46.2064 32.7282 46.368 32.3216 46.5179C31.3019 46.895 30.2488 47.2055 29.1683 47.4416C27.504 47.807 25.774 48 24 48C22.03 48 20.1159 47.7629 18.2841 47.3153C15.888 46.7295 13.632 45.7851 11.5788 44.5381C11.2202 44.3216 10.8666 44.0944 10.5208 43.8593L10.5198 43.8583C7.73388 41.9638 5.36816 39.4991 3.5902 36.6318C1.31363 32.9633 0 28.6354 0 24C0 14.6331 5.3662 6.52016 13.1912 2.56555C15.6519 1.32245 18.3556 0.490775 21.2121 0.160653C22.126 0.0548571 23.0567 0 24 0C37.2549 0 48 10.7451 48 24Z" fill="#78B0D9"/>
<path d="M46.896 31.2156C46.1281 33.6568 44.98 35.9294 43.5214 37.965C43.1109 38.5371 42.6769 39.0906 42.2185 39.6235C41.9981 39.8811 41.7728 40.1329 41.5406 40.3797C40.9137 41.0517 40.2485 41.6875 39.5471 42.2831C39.3248 42.4731 39.0985 42.6592 38.8693 42.8395C37.4146 43.9895 35.8237 44.974 34.1241 45.7665C33.9419 45.8517 33.7587 45.934 33.5736 46.0143C33.5579 46.0212 33.5423 46.028 33.5266 46.0349C33.1308 46.2063 32.7282 46.368 32.3217 46.5178C31.3019 46.895 30.2489 47.2055 29.1684 47.4416C27.5041 47.807 25.7741 48 24 48C22.0301 48 20.116 47.7629 18.2841 47.3152C15.888 46.7294 13.632 45.7851 11.5788 44.5381C11.2203 44.3216 10.8667 44.0943 10.5209 43.8592L10.5199 43.8582C7.73393 41.9637 5.36821 39.4991 3.59025 36.6318H3.60887C3.61964 36.6318 3.62944 36.6328 3.64021 36.6338C3.01033 35.7345 2.66846 34.6609 2.66846 33.5559V27.7087C2.66846 27.4716 2.76446 27.2571 2.91923 27.1014C3.07499 26.9466 3.28952 26.8506 3.52658 26.8506C4.0007 26.8506 4.3847 27.2346 4.3847 27.7087V25.9709C4.3847 25.6506 4.56005 25.3704 4.82062 25.2235C4.94601 25.1529 5.09001 25.1118 5.2438 25.1118C5.71695 25.1118 6.10193 25.4968 6.10193 25.9709V24.6318C6.10193 24.5338 6.1176 24.4408 6.14797 24.3536C6.19107 24.2282 6.2616 24.1165 6.3527 24.0254C6.40756 23.9706 6.46927 23.9236 6.53784 23.8854C6.66225 23.8138 6.80625 23.7737 6.96005 23.7737C7.43417 23.7737 7.81817 24.1577 7.81817 24.6318V25.7133C7.81817 25.5311 7.87499 25.3616 7.97295 25.2225C8.04544 25.1167 8.14242 25.0285 8.25409 24.9658C8.37948 24.8953 8.52348 24.8551 8.67629 24.8551C9.15042 24.8551 9.5354 25.2391 9.5354 25.7133V33.2248L11.2193 31.5448C11.5818 31.1843 12.1676 31.1853 12.529 31.5467C12.5369 31.5546 12.5447 31.5634 12.5516 31.5712C12.8072 31.8455 12.864 32.2374 12.724 32.5645C12.6789 32.6703 12.6133 32.7693 12.5271 32.8555L11.1703 34.2093C10.8275 34.5521 10.4288 35.5141 9.82927 36.3693H11.4387V35.4945C11.4387 35.0204 11.8227 34.6364 12.2969 34.6364C12.4507 34.6364 12.5947 34.6775 12.7191 34.748C12.8307 34.8107 12.9277 34.8989 13.0012 35.0037C13.0982 35.1428 13.155 35.3123 13.155 35.4945V34.414C13.155 33.9399 13.54 33.5559 14.0141 33.5559C14.1669 33.5559 14.3109 33.596 14.4363 33.6666C14.5039 33.7048 14.5656 33.7518 14.6205 33.8067C14.7116 33.8987 14.7831 34.0104 14.8252 34.1348C14.8556 34.222 14.8722 34.316 14.8722 34.414V35.7521C14.8722 35.278 15.2562 34.894 15.7303 34.894C15.8832 34.894 16.0281 34.9342 16.1525 35.0047C16.4131 35.1526 16.5885 35.4318 16.5885 35.7521V37.4909C16.5885 37.0168 16.9725 36.6318 17.4466 36.6318C17.5112 36.6318 17.5729 36.6396 17.6337 36.6534V31.8749C17.6337 31.3998 18.0177 31.0158 18.4918 31.0158C18.6456 31.0158 18.7896 31.0569 18.914 31.1275C19.0257 31.1902 19.1227 31.2783 19.1961 31.3841C19.2931 31.5232 19.3499 31.6917 19.3499 31.8749V30.7934C19.3499 30.3193 19.7349 29.9353 20.209 29.9353C20.3618 29.9353 20.5058 29.9755 20.6312 30.046C20.6352 30.0489 20.64 30.0529 20.644 30.0548C20.6156 29.8295 20.6009 29.6013 20.6009 29.372V23.5249C20.6009 23.2878 20.6969 23.0733 20.8516 22.9185C21.0074 22.7627 21.2219 22.6667 21.459 22.6667C21.9331 22.6667 22.3171 23.0507 22.3171 23.5249V21.7871C22.3171 21.4667 22.4925 21.1876 22.753 21.0396C22.8784 20.9691 23.0224 20.928 23.1762 20.928C23.6494 20.928 24.0343 21.3129 24.0343 21.7871V20.448C24.0343 20.351 24.05 20.2569 24.0804 20.1698C24.1235 20.0444 24.194 19.9327 24.2851 19.8416C24.34 19.7867 24.4017 19.7397 24.4703 19.7015C24.5947 19.631 24.7387 19.5898 24.8925 19.5898C25.3666 19.5898 25.7506 19.9748 25.7506 20.448V21.5294C25.7506 21.3472 25.8074 21.1778 25.9054 21.0387C25.9778 20.9329 26.0748 20.8457 26.1865 20.782C26.3119 20.7115 26.4559 20.6713 26.6087 20.6713C27.0828 20.6713 27.4678 21.0553 27.4678 21.5294V29.0409L29.1517 27.3609C29.5142 27.0005 30.1 27.0014 30.4614 27.3639C30.4693 27.3717 30.4771 27.3796 30.484 27.3874C30.7396 27.6627 30.7965 28.0535 30.6564 28.3817C30.6113 28.4865 30.5457 28.5854 30.4595 28.6716L29.1027 30.0264C28.5767 30.5525 27.9165 32.54 26.6058 33.358C26.5264 33.6431 26.4755 33.9369 26.4529 34.2357C26.5891 34.1446 26.7537 34.0908 26.93 34.0908C27.4041 34.0908 27.7881 34.4758 27.7881 34.9499V33.2112C27.7881 32.8908 27.9635 32.6117 28.224 32.4637C28.3494 32.3932 28.4934 32.353 28.6463 32.353C29.1204 32.353 29.5044 32.737 29.5044 33.2112V31.873C29.5044 31.7751 29.521 31.682 29.5514 31.5948C29.5935 31.4695 29.665 31.3578 29.7561 31.2657C29.811 31.2108 29.8727 31.1638 29.9403 31.1256C30.0657 31.0551 30.2097 31.0149 30.3635 31.0149C30.8366 31.0149 31.2216 31.3989 31.2216 31.873V32.9535C31.2216 32.7713 31.2784 32.6019 31.3764 32.4637C31.4489 32.3579 31.5458 32.2698 31.6575 32.2071C31.7486 32.1552 31.8505 32.1199 31.9583 32.1052V27.644C31.9583 27.1699 32.3423 26.7859 32.8164 26.7859C32.9702 26.7859 33.1142 26.8261 33.2386 26.8966C33.3503 26.9603 33.4472 27.0475 33.5197 27.1533C33.6177 27.2924 33.6745 27.4618 33.6745 27.644V26.5626C33.6745 26.0885 34.0595 25.7045 34.5326 25.7045C34.6864 25.7045 34.8304 25.7446 34.9548 25.8161C35.0234 25.8543 35.0851 25.9014 35.14 25.9562C35.2311 26.0473 35.3016 26.159 35.3447 26.2844C35.3751 26.3716 35.3907 26.4656 35.3907 26.5626V27.9017C35.3907 27.4276 35.7757 27.0426 36.2498 27.0426C36.4027 27.0426 36.5467 27.0837 36.672 27.1543C36.9326 27.3022 37.108 27.5814 37.108 27.9017V29.6395C37.108 29.1654 37.492 28.7814 37.9661 28.7814C38.2032 28.7814 38.4177 28.8774 38.5734 29.0321C38.7282 29.1879 38.8242 29.4024 38.8242 29.6395V34.2112C38.9819 34.0104 39.2258 33.8811 39.5001 33.8811C39.653 33.8811 39.7979 33.9223 39.9223 33.9928C40.0546 34.0672 40.1643 34.1769 40.2407 34.3072V29.7825C40.2407 29.3084 40.6247 28.9244 41.0998 28.9244C41.2526 28.9244 41.3966 28.9645 41.521 29.036C41.6337 29.0987 41.7297 29.1869 41.8032 29.2917C41.9011 29.4308 41.9579 29.6003 41.9579 29.7825V28.702C41.9579 28.2279 42.3419 27.8429 42.816 27.8429C42.9689 27.8429 43.1138 27.884 43.2383 27.9546C43.3058 27.9928 43.3676 28.0398 43.4224 28.0947C43.5145 28.1867 43.585 28.2984 43.6281 28.4228C43.6575 28.51 43.6742 28.604 43.6742 28.702V30.0401C43.6742 29.566 44.0582 29.182 44.5323 29.182C44.6861 29.182 44.8301 29.2222 44.9545 29.2927C45.2151 29.4406 45.3904 29.7198 45.3904 30.0401V31.7789C45.3904 31.3038 45.7754 30.9198 46.2485 30.9198C46.4866 30.9198 46.7011 31.0158 46.8559 31.1716C46.8706 31.1863 46.8843 31.2009 46.896 31.2156Z" fill="#4F88B1"/>
<path d="M45.7156 18.0215L41.7124 13.7895C41.4121 13.4721 40.9746 13.3235 40.5431 13.3924L34.7907 14.3111C34.5948 14.3423 34.457 14.4776 34.4027 14.6407L34.216 15.1902C34.1597 15.3524 34.187 15.5437 34.3232 15.6878L35.9796 17.439L35.449 19.0014C35.243 19.6079 35.5898 20.3268 36.2953 20.9485C36.7931 21.3868 37.4697 21.7771 38.2567 22.0444C40.1586 22.6904 41.9855 22.3754 42.3369 21.3408L42.8675 19.7784L45.2478 19.3982C45.4436 19.3668 45.5817 19.2318 45.6358 19.0687L45.8225 18.5194C45.8788 18.3568 45.8519 18.1656 45.7156 18.0215Z" fill="#4F88B1"/>
<path d="M15.792 10.4146L10.0851 9.24616C9.65714 9.15848 9.21338 9.28789 8.89962 9.59195L4.71588 13.6454C4.57344 13.7834 4.53818 13.9733 4.58735 14.138L4.74987 14.695C4.79679 14.8603 4.92894 15.0013 5.12319 15.041L7.48469 15.5246L7.94677 17.1087C8.12613 17.7234 8.82272 18.1132 9.75725 18.2175C10.4164 18.2907 11.1945 18.2222 11.9925 17.9894C13.9206 17.427 15.2361 16.1205 14.9302 15.0716L14.4681 13.4875L16.1992 11.8101C16.3416 11.6721 16.3771 11.4823 16.328 11.3177L16.1654 10.7607C16.1181 10.5955 15.9864 10.4545 15.792 10.4146Z" fill="#4F88B1"/>
<path d="M21.2118 0.160645L20.4321 4.11722C20.3606 4.4826 20.1137 4.78824 19.7718 4.9342L15.2148 6.8875C15.06 6.95411 14.8993 6.91885 14.7857 6.82677L14.4017 6.51624C14.2881 6.42513 14.2205 6.27526 14.2528 6.10971L14.6495 4.09664L13.5573 3.21305C13.3653 3.05828 13.2448 2.83493 13.1909 2.56554C15.6517 1.32244 18.3553 0.490767 21.2118 0.160645Z" fill="#4F88B1"/>
<path d="M7.61796 9.94881C7.02159 9.94881 6.36898 9.84047 5.62988 9.60292L5.92974 8.67025C8.62312 9.53601 9.81499 8.46101 12.189 6.31933C12.8775 5.69817 13.6579 4.99413 14.5828 4.24906C16.4003 2.78467 18.7472 2.64213 21.3699 3.83704C23.2867 4.71044 24.6674 5.98098 24.7253 6.03466L24.0591 6.75299C24.0459 6.74075 22.7209 5.52439 20.9429 4.71907C18.6569 3.68364 16.7239 3.78199 15.1973 5.01187C14.2938 5.7398 13.5242 6.43413 12.8452 7.04667C10.9947 8.71619 9.62818 9.94871 7.61796 9.94881Z" fill="#F6E06E"/>
<path d="M43.6622 5.68813L43.1466 4.14224C42.9979 3.68594 42.614 3.30645 42.0676 3.21594L26.0093 0.56183C25.4079 0.462009 24.8005 0.514515 24.238 0.702107C23.6755 0.889699 23.1583 1.21247 22.7373 1.65339L11.4888 13.4169C11.1062 13.8174 11.027 14.3513 11.182 14.8055L11.6977 16.3514L13.155 15.8652L28.3141 18.3704C28.9155 18.4702 29.5229 18.4178 30.0854 18.2301C30.6478 18.0425 31.1651 17.7198 31.5861 17.2789L42.205 6.1742L43.6622 5.68813Z" fill="#593375"/>
<path d="M43.6623 5.68815L43.1465 4.14206C42.9981 3.68625 42.6139 3.30627 42.0677 3.21585L34.3031 1.93268L33.0755 1.72962L26.0091 0.562236C25.408 0.461926 24.8006 0.514432 24.2383 0.702024L30.0856 18.2303C30.6478 18.0427 31.1652 17.72 31.5857 17.2789L42.205 6.17432L43.6623 5.68815Z" fill="#8D71B3"/>
<path d="M43.3533 7.06914L32.1048 18.8321C31.2612 19.7143 30.0363 20.1229 28.832 19.9238L12.7741 17.2702C11.6871 17.0906 11.2455 15.7667 12.0069 14.9704L23.2554 3.20749C24.099 2.32527 25.3239 1.91668 26.5282 2.11573L42.586 4.76945C43.6731 4.94901 44.1148 6.27283 43.3533 7.06914Z" fill="#704F85"/>
<path d="M38.9715 9.21994L41.094 15.5822C40.5278 13.8848 38.3767 12.926 35.5039 12.818C33.4772 12.7441 31.0895 13.0935 28.644 13.9093C27.1416 14.4105 25.7621 15.0393 24.5557 15.7468C21.0181 17.819 18.9714 20.5623 19.6918 22.7219L17.5694 16.3597C16.8489 14.2001 18.8957 11.4567 22.4333 9.38451C23.6398 8.67705 25.0193 8.04824 26.5216 7.54709C28.9671 6.73128 31.3548 6.38196 33.3815 6.45572C36.2543 6.56367 38.4053 7.5225 38.9715 9.21994Z" fill="#593375"/>
<path d="M41.094 15.582C41.8147 17.7423 39.7675 20.4854 36.23 22.5577C35.0243 23.265 33.6441 23.8932 32.1423 24.3943C29.6965 25.2102 27.3091 25.5593 25.2828 25.4864C22.4095 25.3777 20.258 24.4193 19.6917 22.7217C18.9714 20.5626 20.836 17.2725 24.3735 15.2001C25.5803 14.4925 26.9592 13.8636 28.4621 13.3622C30.9067 12.5467 33.2953 12.1972 35.3219 12.271C38.1948 12.3786 40.5277 13.8844 41.094 15.582Z" fill="#593375"/>
<path d="M38.9718 9.21993L41.0943 15.5822C40.5281 13.8848 38.377 12.926 35.5042 12.818C33.4775 12.7441 31.0897 13.0935 28.6443 13.9093C27.1419 14.4105 25.7624 15.0393 24.556 15.7468L22.4336 9.3845C23.6401 8.67704 25.0196 8.04824 26.5219 7.54708C28.9674 6.73128 31.3551 6.38196 33.3818 6.45572C36.2545 6.56367 38.4056 7.5225 38.9718 9.21993Z" fill="#8D71B3"/>
<path d="M24.8453 37.8073C24.7767 37.9709 24.6738 38.1247 24.5396 38.2599L22.4286 40.367C21.6087 41.1849 20.5821 44.2785 18.5426 45.552C18.3839 46.1221 18.2957 46.7138 18.284 47.3152C15.4686 46.6275 12.8482 45.4432 10.5207 43.8592C9.65963 42.5191 9.19727 40.9547 9.19727 39.3492V30.2498C9.19727 29.8814 9.34616 29.5474 9.58812 29.3054C9.83008 29.0635 10.1641 28.9136 10.5334 28.9136C11.2711 28.9136 11.8686 29.5121 11.8686 30.2498V27.5451C11.8686 27.0465 12.1419 26.6116 12.5475 26.3823C12.7414 26.2716 12.9658 26.209 13.2048 26.209C13.9414 26.209 14.54 26.8075 14.54 27.5451V25.4615C14.54 25.3097 14.5654 25.1647 14.6115 25.0285C14.6791 24.8336 14.7888 24.6602 14.9318 24.5182C15.017 24.433 15.113 24.3595 15.2178 24.2997C15.4128 24.189 15.6371 24.1263 15.8751 24.1263C16.6128 24.1263 17.2113 24.7249 17.2113 25.4615V27.1445C17.2113 26.8604 17.2995 26.5969 17.4513 26.3804C17.5659 26.2168 17.7158 26.0796 17.8902 25.9817C18.0841 25.872 18.3084 25.8093 18.5465 25.8093C19.2851 25.8093 19.8826 26.4059 19.8826 27.1445V38.8339L22.505 36.2204C23.0683 35.6581 23.9803 35.6591 24.5426 36.2233C24.5543 36.2351 24.5661 36.2478 24.5778 36.2605C24.9746 36.6886 25.0637 37.2969 24.8453 37.8073Z" fill="#EDBBA7"/>
<path d="M11.5787 44.5381C11.2201 44.3216 10.8665 44.0943 10.5207 43.8592L10.5197 43.8582C9.65963 42.5181 9.19727 40.9547 9.19727 39.3492V30.2497C9.19727 29.8814 9.34616 29.5474 9.58812 29.3054C9.64396 29.2496 9.70469 29.1996 9.76935 29.1545V39.3492C9.76935 41.2349 10.408 43.0628 11.5787 44.5381Z" fill="#DBA290"/>
<path d="M19.8827 38.0042V38.8956C19.8807 38.895 19.8794 38.8943 19.8776 38.8937C18.7838 38.4088 17.5665 38.3795 16.4498 38.8104C15.3337 39.2412 14.4518 40.0811 13.9669 41.1755C13.8988 41.3302 13.7474 41.4218 13.589 41.4218C13.533 41.4218 13.4758 41.4103 13.4217 41.3861C13.2123 41.2938 13.1182 41.0495 13.2111 40.8402C13.785 39.544 14.8298 38.5495 16.1521 38.0386C17.3629 37.5709 18.6749 37.5614 19.8827 38.0042Z" fill="#DBA290"/>
<path d="M12.5469 26.3821V35.0378C12.5469 35.2251 12.3951 35.377 12.2078 35.377C12.0205 35.377 11.8687 35.2251 11.8687 35.0378V27.5453C11.8687 27.0464 12.1417 26.6119 12.5469 26.3821Z" fill="#DBA290"/>
<path d="M15.2183 24.2995V33.7092C15.2183 33.8965 15.0665 34.0483 14.8792 34.0483C14.6919 34.0483 14.54 33.8965 14.54 33.7092V25.462C14.54 25.093 14.6895 24.7595 14.9314 24.5178C15.0166 24.4324 15.1127 24.3593 15.2183 24.2995Z" fill="#DBA290"/>
<path d="M17.8899 25.9819V34.0718C17.8899 34.2591 17.7381 34.4109 17.5508 34.4109H17.5501C17.3628 34.4109 17.2109 34.2591 17.2109 34.0718V27.1445C17.2109 26.6455 17.4846 26.2103 17.8899 25.9819Z" fill="#DBA290"/>
<path d="M30.9053 45.1053L32.3218 46.5179C31.302 46.895 30.249 47.2055 29.1685 47.4416L28.8707 47.1438C28.7365 47.0096 28.6336 46.8558 28.5641 46.6922C28.3456 46.1819 28.4348 45.5735 28.8325 45.1455C28.8432 45.1327 28.856 45.12 28.8677 45.1082C29.43 44.544 30.341 44.543 30.9053 45.1053Z" fill="#EDBBA7"/>
<path d="M43.5211 37.9651C40.9987 41.4848 37.5476 44.2942 33.5264 46.035V36.0294C33.5264 35.2908 34.1249 34.6933 34.8625 34.6933C35.1016 34.6933 35.3249 34.7569 35.5198 34.8666C35.6942 34.9646 35.8441 35.1017 35.9577 35.2653C36.1096 35.4818 36.1987 35.7453 36.1987 36.0294V34.3465C36.1987 33.6098 36.7962 33.0113 37.5339 33.0113C37.7729 33.0113 37.9972 33.074 38.1912 33.1848C38.297 33.2445 38.393 33.317 38.4782 33.4022C38.6212 33.5453 38.7309 33.7187 38.7975 33.9136C38.8446 34.0488 38.8691 34.1947 38.8691 34.3466V36.4302C38.8691 35.6925 39.4676 35.094 40.2052 35.094C40.4442 35.094 40.6686 35.1567 40.8625 35.2674C41.2681 35.4966 41.5404 35.9316 41.5404 36.4302V39.1348C41.5404 38.3972 42.1389 37.7987 42.8766 37.7987C43.1107 37.7986 43.3301 37.8583 43.5211 37.9651Z" fill="#EDBBA7"/>
<path d="M34.1239 45.7666C33.9417 45.8518 33.7585 45.9341 33.5734 46.0144C33.542 45.7215 33.5264 45.4257 33.5264 45.1289V36.0295C33.5264 35.6601 33.6762 35.3261 33.9172 35.0841C33.9731 35.0293 34.0338 34.9793 34.0994 34.9333V45.1289C34.0994 45.3424 34.1073 45.555 34.1239 45.7666Z" fill="#DBA290"/>
<path d="M42.2179 37.972V39.6236C41.9975 39.8812 41.7722 40.133 41.54 40.3798V39.1348C41.54 38.6362 41.8133 38.2012 42.2179 37.972Z" fill="#DBA290"/>
<path d="M39.547 35.2673V42.2832C39.3246 42.4732 39.0984 42.6593 38.8691 42.8396V36.4301C38.8691 36.0608 39.019 35.7277 39.26 35.4858C39.3462 35.4006 39.4422 35.3271 39.547 35.2673Z" fill="#DBA290"/>
<path d="M36.8777 33.184V43.3245C36.8777 43.5118 36.7258 43.6636 36.5386 43.6636H36.5379C36.3506 43.6636 36.1987 43.5118 36.1987 43.3245V34.3465C36.1987 33.8476 36.4723 33.4124 36.8777 33.184Z" fill="#DBA290"/>
<path d="M0.660829 10.251C1.72956 10.4342 4.5117 10.0192 4.69489 8.95042C4.87807 7.88169 2.39285 6.56394 1.32411 6.38076C0.255376 6.19757 1.0078 7.2184 0.824616 8.28714C0.641433 9.35587 -0.407906 10.0678 0.660829 10.251Z" fill="#F6E06E"/>
<path d="M5.7798 10.5625C6.56725 10.5625 7.2056 9.92412 7.2056 9.13667C7.2056 8.34923 6.56725 7.71088 5.7798 7.71088C4.99235 7.71088 4.354 8.34923 4.354 9.13667C4.354 9.92412 4.99235 10.5625 5.7798 10.5625Z" fill="#D66D22"/>
</svg>
