<svg width="32" height="32" viewBox="0 0 32 32" fill="none" xmlns="http://www.w3.org/2000/svg">
<path d="M16 32C7.17785 32 0 24.8228 0 16C0 7.17785 7.17785 0 16 0C24.8222 0 32 7.17785 32 16C32 24.8228 24.8222 32 16 32ZM16 1.23077C7.85662 1.23077 1.23077 7.85662 1.23077 16C1.23077 24.1434 7.85662 30.7692 16 30.7692C24.1434 30.7692 30.7692 24.1434 30.7692 16C30.7692 7.85662 24.1434 1.23077 16 1.23077Z" fill="url(#paint0_linear)"/>
<path d="M11.6923 12.3077H8V23.3847H11.6923V12.3077Z" fill="url(#paint1_linear)"/>
<path d="M10.1538 11.077C11.3434 11.077 12.3077 10.2504 12.3077 9.2308C12.3077 8.2112 11.3434 7.38464 10.1538 7.38464C8.96431 7.38464 8 8.2112 8 9.2308C8 10.2504 8.96431 11.077 10.1538 11.077Z" fill="url(#paint2_linear)"/>
<path d="M20.923 12.3077H20.5975H20.5969C19.251 12.3077 18.1353 13.2751 17.8972 14.552H17.8461V12.3077H14.1538V23.3847H17.8461V18.0997V17.1588C17.8504 16.9256 17.8689 16.7102 17.8978 16.5065C18.0873 15.688 18.8166 15.077 19.6923 15.077C20.712 15.077 21.5384 15.9034 21.5384 16.9231V17.2671V17.9908V23.3847H25.2307V17.7736V17.2671V16.6154C25.2307 14.2364 23.3021 12.3077 20.923 12.3077Z" fill="url(#paint3_linear)"/>
<defs>
<linearGradient id="paint0_linear" x1="16" y1="0" x2="16.0001" y2="48.0923" gradientUnits="userSpaceOnUse">
<stop offset="0.0759424" stop-color="#E480E5"/>
<stop offset="0.234217" stop-color="#E480E5"/>
<stop offset="0.663437" stop-color="#9349DD"/>
<stop offset="0.781473" stop-color="#9349DD"/>
</linearGradient>
<linearGradient id="paint1_linear" x1="9.84615" y1="12.3077" x2="9.8463" y2="28.9551" gradientUnits="userSpaceOnUse">
<stop offset="0.0759424" stop-color="#E480E5"/>
<stop offset="0.234217" stop-color="#E480E5"/>
<stop offset="0.663437" stop-color="#9349DD"/>
<stop offset="0.781473" stop-color="#9349DD"/>
</linearGradient>
<linearGradient id="paint2_linear" x1="10.1538" y1="7.38464" x2="10.1539" y2="12.9338" gradientUnits="userSpaceOnUse">
<stop offset="0.0759424" stop-color="#E480E5"/>
<stop offset="0.234217" stop-color="#E480E5"/>
<stop offset="0.663437" stop-color="#9349DD"/>
<stop offset="0.781473" stop-color="#9349DD"/>
</linearGradient>
<linearGradient id="paint3_linear" x1="19.6923" y1="12.3077" x2="19.6923" y2="28.9551" gradientUnits="userSpaceOnUse">
<stop offset="0.0759424" stop-color="#E480E5"/>
<stop offset="0.234217" stop-color="#E480E5"/>
<stop offset="0.663437" stop-color="#9349DD"/>
<stop offset="0.781473" stop-color="#9349DD"/>
</linearGradient>
</defs>
</svg>
