<svg width="48" height="48" viewBox="0 0 48 48" fill="none" xmlns="http://www.w3.org/2000/svg">
<g clip-path="url(#clip0)">
<path d="M48 24C48 25.7417 47.8148 27.4403 47.4612 29.0772C46.5472 33.3208 44.5127 37.1461 41.6797 40.2299C41.1203 40.8392 40.5296 41.4202 39.9105 41.9687C36.9169 44.6214 33.2561 46.5375 29.2114 47.4308C29.0429 47.4691 28.8725 47.5043 28.7019 47.5386C28.3826 47.6022 28.0613 47.659 27.7371 47.71C26.923 47.8373 26.0962 47.9245 25.2577 47.9677C24.8415 47.9892 24.4223 48 24 48C22.13 48 20.3108 47.7864 18.5643 47.3819C17.7052 47.184 16.8647 46.9391 16.0438 46.6502C13.3833 45.7157 10.9362 44.3257 8.79872 42.5722C7.67709 41.6543 6.64069 40.6355 5.70319 39.5315C5.65716 39.4776 5.61112 39.4227 5.56509 39.3679C5.25262 38.9947 4.95187 38.6107 4.66284 38.2178C1.73194 34.2387 0 29.3212 0 24C0 20.8349 0.612281 17.8129 1.72603 15.0465C1.99734 14.3716 2.29809 13.7123 2.62828 13.0697C3.36 11.6405 4.23187 10.2945 5.22422 9.05044C5.45447 8.76047 5.6925 8.47641 5.93634 8.19816C7.01194 6.96975 8.211 5.85103 9.51384 4.86366C9.7215 4.70597 9.93216 4.55212 10.1447 4.40128C11.3878 3.52059 12.7191 2.75559 14.1208 2.12081C17.134 0.75825 20.4784 0 24 0C27.8723 0 31.5301 0.916875 34.7687 2.54494C35.9383 3.13369 37.0531 3.81544 38.1042 4.57959C38.4765 4.85091 38.8418 5.13206 39.1974 5.42494C40.4454 6.44663 41.5886 7.59178 42.6074 8.84175C45.601 12.5103 47.5289 17.0811 47.9246 22.0829C47.9745 22.7157 48 23.3544 48 24Z" fill="#FF5B47"/>
<path d="M18.5642 34.0045V47.3818C17.7051 47.1839 16.8646 46.939 16.0438 46.6501C13.3832 45.7156 10.9362 44.3255 8.79866 42.572C7.67703 41.6541 6.64062 40.6354 5.70312 39.5314V34.0045H18.5642Z" fill="#DEAB85"/>
<path d="M8.79866 34.0045V42.572C7.67703 41.6541 6.64063 40.6354 5.70312 39.5314V34.0045H8.79866Z" fill="#BD8062"/>
<path d="M23.2346 25.7862C22.6627 26.8176 22.6618 29.1326 22.6618 29.1458C22.6618 29.1458 22.6196 38.0681 16.1753 38.0681C13.766 38.0681 10.3741 38.0681 10.3741 38.0681C5.61823 38.0681 2.93164 33.2005 2.93164 29.0124V19.711C2.93164 18.6358 3.80408 17.7634 4.8792 17.7634C5.41723 17.7634 5.90389 17.9819 6.25648 18.3337C6.60908 18.6863 6.82677 19.1738 6.82677 19.7109V15.767C6.82677 14.691 7.6992 13.8194 8.77433 13.8194C9.31236 13.8194 9.79902 14.0371 10.1515 14.3896C10.5041 14.7423 10.7218 15.229 10.7218 15.7669V12.7302C10.7218 11.6542 11.5942 10.7826 12.6702 10.7826C13.2073 10.7826 13.6949 11.0003 14.0474 11.3529C14.3991 11.7056 14.6176 12.1922 14.6176 12.7302V15.1826C14.6176 14.1066 15.4891 13.235 16.5643 13.235C17.1023 13.235 17.589 13.4527 17.9416 13.8053C18.2942 14.1579 18.5118 14.6445 18.5118 15.1825V25.6302C18.7112 24.9416 18.9893 24.2712 19.346 23.629C19.9412 22.5547 21.2944 22.1673 22.3687 22.7632C23.4432 23.3595 23.8305 24.7128 23.2346 25.7862Z" fill="#DEAB85"/>
<path d="M11.6984 38.0682C10.9063 38.0682 10.3741 38.0682 10.3741 38.0682C5.61823 38.0682 2.93164 33.2006 2.93164 29.0126V19.7112C2.93164 18.6361 3.80408 17.7637 4.8792 17.7637C5.1118 17.7637 5.33445 17.8043 5.54127 17.8795C4.7922 18.1502 4.25586 18.8686 4.25586 19.7112V29.0126C4.25595 33.2006 6.94255 38.0682 11.6984 38.0682Z" fill="#BD8062"/>
<path d="M6.82666 24.8755V15.8127C6.82666 14.7487 7.66094 13.8467 8.72463 13.8204C8.97522 13.8143 9.21485 13.855 9.43638 13.9357C8.68732 14.2064 8.15097 14.9248 8.15097 15.7673V24.8756C8.15097 25.2413 7.85454 25.5377 7.48891 25.5377C7.1231 25.5377 6.82666 25.2413 6.82666 24.8755Z" fill="#BD8062"/>
<path d="M10.7217 24.0603V12.7306C10.7217 11.6665 11.556 10.7645 12.6196 10.7383C12.8702 10.7321 13.1099 10.7729 13.3314 10.8536C12.5823 11.1243 12.046 11.8427 12.046 12.6853V24.0604C12.046 24.4262 11.7496 24.7225 11.3839 24.7225C11.0182 24.7224 10.7217 24.426 10.7217 24.0603Z" fill="#BD8062"/>
<path d="M14.6177 24.6944V15.1831C14.6177 14.119 15.452 13.217 16.5156 13.1908C16.7662 13.1846 17.0059 13.2254 17.2274 13.3061C16.4783 13.5768 15.942 14.2952 15.942 15.1378V24.6946C15.942 25.0603 15.6456 25.3566 15.2799 25.3566C14.9141 25.3566 14.6177 25.0602 14.6177 24.6944Z" fill="#BD8062"/>
<path d="M22.7496 23.0302C21.8168 22.8299 20.8253 23.2488 20.3394 24.1261C19.5191 25.6035 19.1119 27.2332 19.1318 28.8786C16.617 28.8786 14.5257 30.6874 14.0875 33.0745C14.0413 33.3266 13.8243 33.511 13.5681 33.511C13.2519 33.511 13.0071 33.2348 13.0431 32.9207C13.3358 30.3657 15.505 28.382 18.1386 28.382C18.1187 26.7366 18.5259 25.1068 19.3461 23.6295C19.9412 22.5552 21.2944 22.1678 22.3688 22.7637C22.507 22.8407 22.6344 22.9301 22.7496 23.0302Z" fill="#BD8062"/>
<path d="M41.6797 29.708V40.2298C41.1204 40.839 40.5297 41.42 39.9106 41.9685C36.9169 44.6213 33.2562 46.5373 29.2114 47.4308C29.043 47.469 28.8725 47.5043 28.702 47.5385C28.3827 47.6022 28.0613 47.659 27.7371 47.71C26.9231 47.8373 26.0963 47.9245 25.2578 47.9676L25.2588 29.708H41.6797Z" fill="#FFCDA8"/>
<path d="M29.2114 29.708V47.4308C29.043 47.469 28.8725 47.5043 28.702 47.5385C28.3827 47.6022 28.0613 47.659 27.7371 47.71C26.9231 47.8373 26.0963 47.9245 25.2578 47.9676L25.2588 29.708H29.2114Z" fill="#EFB691"/>
<path d="M47.643 19.2146C46.9128 20.5315 46.9117 23.4872 46.9117 23.5042C46.9117 23.5042 46.8578 34.8964 38.6295 34.8964C35.5532 34.8964 31.2224 34.8964 31.2224 34.8964C25.15 34.8964 21.7197 28.6813 21.7197 23.334V11.4576C21.7197 10.0848 22.8337 8.97096 24.2064 8.97096C24.8934 8.97096 25.5148 9.24996 25.965 9.69911C26.4152 10.1492 26.6932 10.7718 26.6932 11.4576V6.42199C26.6932 5.04808 27.8071 3.93536 29.1799 3.93536C29.8668 3.93536 30.4883 4.21324 30.9384 4.66352C31.3885 5.11371 31.6665 5.73508 31.6665 6.42208V2.54458C31.6665 1.17067 32.7804 0.0578613 34.1542 0.0578613C34.8399 0.0578613 35.4625 0.33583 35.9126 0.786018C36.3618 1.23621 36.6408 1.85758 36.6408 2.54458V5.67583C36.6408 4.30192 37.7536 3.18921 39.1264 3.18921C39.8133 3.18921 40.4348 3.46708 40.8849 3.91736C41.3351 4.36746 41.6131 4.98892 41.6131 5.67583V19.0158C41.8678 18.1365 42.2229 17.2806 42.6784 16.4605C43.4382 15.0888 45.166 14.5943 46.5378 15.355C47.9093 16.116 48.4039 17.8438 47.643 19.2146Z" fill="#FFCDA8"/>
<path d="M32.9133 34.8965C31.9019 34.8965 31.2224 34.8965 31.2224 34.8965C25.15 34.8965 21.7197 28.6814 21.7197 23.3341V11.4577C21.7197 10.0849 22.8337 8.97107 24.2064 8.97107C24.5034 8.97107 24.7876 9.02282 25.052 9.11901C24.0956 9.46457 23.4108 10.3819 23.4108 11.4577V23.3339C23.4106 28.6814 26.841 34.8965 32.9133 34.8965Z" fill="#EFB691"/>
<path d="M26.6934 18.0516V6.48003C26.6934 5.1215 27.7585 3.96969 29.1167 3.93622C29.4367 3.92825 29.7426 3.98038 30.0255 4.08331C29.0692 4.42888 28.3843 5.34622 28.3843 6.422V18.0516C28.3843 18.5186 28.0059 18.8971 27.5388 18.8971C27.0719 18.897 26.6934 18.5186 26.6934 18.0516Z" fill="#EFB691"/>
<path d="M31.666 17.0107V2.54461C31.666 1.18608 32.7312 0.034264 34.0894 0.00079525C34.4093 -0.0071735 34.7152 0.0449515 34.9982 0.147889C34.0418 0.493452 33.357 1.4108 33.357 2.48658V17.0106C33.357 17.4776 32.9784 17.8561 32.5115 17.8561C32.0445 17.856 31.666 17.4776 31.666 17.0107Z" fill="#EFB691"/>
<path d="M36.6406 17.8203V5.67583C36.6406 4.3173 37.7058 3.16549 39.064 3.13202C39.3839 3.12405 39.6898 3.17618 39.9728 3.27911C39.0164 3.62468 38.3316 4.54202 38.3316 5.6178V17.8201C38.3316 18.2871 37.9531 18.6656 37.4861 18.6656C37.0191 18.6656 36.6406 18.2872 36.6406 17.8203Z" fill="#EFB691"/>
<path d="M47.024 15.6955C45.833 15.4397 44.567 15.9745 43.9466 17.0947C42.8993 18.981 42.3794 21.0618 42.4047 23.1628C39.1937 23.1628 36.5235 25.4722 35.9641 28.5204C35.905 28.8421 35.628 29.0776 35.3008 29.0776C34.897 29.0776 34.5845 28.725 34.6305 28.3239C35.0042 25.0617 37.7741 22.5287 41.1365 22.5287C41.1111 20.4278 41.6312 18.3469 42.6784 16.4607C43.4383 15.0889 45.1661 14.5944 46.5378 15.3552C46.7144 15.4534 46.877 15.5675 47.024 15.6955Z" fill="#EFB691"/>
</g>
<defs>
<clipPath id="clip0">
<rect width="48" height="48" fill="white"/>
</clipPath>
</defs>
</svg>
