<svg width="48" height="48" viewBox="0 0 48 48" fill="none" xmlns="http://www.w3.org/2000/svg">
<g clip-path="url(#clip0)">
<path d="M47.9996 23.8781C48.0648 36.9426 37.574 47.7209 24.512 47.9945C22.7076 48.0322 20.948 47.8696 19.2524 47.5291C18.4138 47.3606 17.8125 46.6194 17.8125 45.7635C17.8125 44.8242 17.0508 44.0625 16.1111 44.0625H11.3408C10.9995 44.0625 10.6663 43.9589 10.3854 43.7651C7.9043 42.0531 5.76123 39.8866 4.07703 37.385C3.86279 37.0671 3.75 36.6914 3.75 36.3076V31.1495C3.75 29.9971 2.81543 29.0625 1.66296 29.0625C0.995362 29.0625 0.428467 28.5773 0.319702 27.9185C0.109863 26.6433 0 25.3345 0 24C0 10.745 10.745 0 24 0C37.214 0 47.9341 10.6791 47.9996 23.8781Z" fill="#025F80"/>
<path d="M19.9874 4.91345C20.049 4.71533 20.109 4.52893 20.1489 4.41577C20.7052 2.83594 21.4596 1.37622 22.3755 0.0560303C22.9124 0.0201416 23.454 0 24 0C24.1809 0 24.3615 0.00292969 24.5413 0.00695801C23.3657 1.4502 22.4158 3.11133 21.7632 4.95337C21.7258 5.05884 21.6698 5.23389 21.6112 5.42139C21.4731 5.86377 21.0055 6.11426 20.5605 5.98425C20.1039 5.85059 19.8457 5.36829 19.9874 4.91345ZM47.9938 23.4932C43.8937 26.8231 38.2804 28.1433 32.7913 26.5364C28.641 25.3217 25.3235 22.6333 23.2386 19.2092L24.059 18.7599C24.3303 18.6108 24.3149 18.2157 24.0322 18.0886L21.3805 16.8984C21.1534 16.7966 20.892 16.9398 20.8557 17.1859L20.4316 20.0614C20.3862 20.3679 20.7111 20.5939 20.9828 20.4452L21.7452 20.0273C24.0421 23.8359 27.7181 26.8271 32.3236 28.1722C37.8596 29.7894 43.5443 28.6809 47.9436 25.6355C47.9799 25.095 48 24.5497 48 24C48 23.8304 47.9971 23.6616 47.9938 23.4932ZM25.6216 43.9468C25.1777 43.8127 24.7083 44.0588 24.5658 44.5001C24.5054 44.6869 24.4475 44.8616 24.4094 44.9667C24.0201 46.0342 23.5302 47.0394 22.9552 47.9758C23.3016 47.9908 23.6499 48 24 48C24.3069 48 24.6123 47.9923 24.9163 47.981C25.3381 47.1984 25.7076 46.377 26.0189 45.5193C26.0599 45.4061 26.1215 45.2205 26.1848 45.0227C26.3306 44.5697 26.0771 44.0845 25.6216 43.9468ZM25.4301 32.7429L25.8809 29.8715C25.9288 29.5653 25.6062 29.3364 25.3334 29.4829L24.5669 29.8934C22.3052 26.064 18.6573 23.0391 14.0643 21.6511C9.18713 20.1775 4.17444 20.829 0.0197754 23.0724C0.00805664 23.38 0 23.6891 0 24C0 24.3395 0.00878906 24.6768 0.0227051 25.0129C3.93237 22.6143 8.81433 21.839 13.5817 23.2826C17.7202 24.5358 21.0128 27.2542 23.0658 30.6976L22.2415 31.1396C21.9683 31.2858 21.9803 31.6813 22.262 31.8109L24.9027 33.0256C25.1287 33.1296 25.3912 32.9886 25.4301 32.7429ZM26.0138 34.2656C25.5802 34.1349 25.1228 34.3799 24.9917 34.8135C24.8606 35.2471 25.106 35.7048 25.5396 35.8356C25.9731 35.9667 26.4305 35.7213 26.5616 35.2877C26.6927 34.8545 26.4474 34.3967 26.0138 34.2656ZM25.6307 37.4854C25.4722 37.9098 25.6875 38.3822 26.1116 38.5408C26.5356 38.6993 27.0084 38.4844 27.167 38.0599C27.3256 37.6359 27.1102 37.1635 26.6862 37.0049C26.2621 36.8459 25.7897 37.0613 25.6307 37.4854ZM26.7524 39.2963C26.3284 39.1377 25.856 39.353 25.6974 39.7771C25.5385 40.2012 25.7538 40.674 26.1779 40.8325C26.6023 40.9911 27.0747 40.7758 27.2333 40.3517C27.3918 39.9276 27.1769 39.4552 26.7524 39.2963ZM26.491 41.6876C26.0669 41.5287 25.5941 41.744 25.4355 42.1681C25.277 42.5922 25.4923 43.0649 25.9164 43.2235C26.3405 43.3821 26.8132 43.1667 26.9718 42.7427C27.1304 42.3186 26.915 41.8462 26.491 41.6876ZM20.2581 15.6687C20.6927 15.7954 21.1479 15.546 21.275 15.1113C21.4017 14.6766 21.1523 14.2211 20.7177 14.0944C20.283 13.9673 19.8278 14.2167 19.7007 14.6514C19.5736 15.0861 19.823 15.5416 20.2581 15.6687ZM20.6111 12.4453C20.7656 12.0198 20.5459 11.5492 20.1204 11.3947C19.6948 11.2397 19.2242 11.4595 19.0697 11.885C18.9148 12.3105 19.1345 12.7811 19.5601 12.9357C19.9856 13.0906 20.4562 12.8712 20.6111 12.4453ZM19.4725 10.645C19.8981 10.7996 20.3687 10.5802 20.5236 10.1543C20.6781 9.72876 20.4587 9.25818 20.0328 9.10364C19.6073 8.9491 19.1367 9.16846 18.9822 9.59399C18.8273 10.0199 19.047 10.4901 19.4725 10.645ZM19.712 8.25146C20.1379 8.40637 20.6082 8.18665 20.7631 7.76111C20.9176 7.33557 20.6982 6.86499 20.2723 6.71008C19.8468 6.55554 19.3762 6.77527 19.2217 7.20081C19.0668 7.62634 19.2865 8.09692 19.712 8.25146Z" fill="#88B9D3"/>
<path d="M19.3844 47.5547C16.0537 46.9058 12.9698 45.5688 10.2859 43.6963C11.6669 43.2192 12.8073 42.1095 13.2621 40.604C14.015 38.112 12.6051 35.4811 10.113 34.7278C7.67993 33.9928 5.11609 35.3193 4.29468 37.7011C2.28052 34.8095 0.886353 31.4539 0.305176 27.8266C0.595215 27.891 0.875366 28.0185 1.12292 28.2115L1.81836 28.7524C2.44275 28.3404 3.10229 27.9852 3.78931 27.6896L3.70435 26.8613C3.59851 25.8311 4.27417 24.883 5.28235 24.6464C6.26929 24.4153 7.27783 24.9368 7.65942 25.8758L7.98975 26.6891C8.72876 26.6441 9.47803 26.6646 10.2302 26.7547L10.5697 25.997C10.993 25.0522 12.0525 24.5688 13.0438 24.8683C14.0143 25.1617 14.6266 26.1175 14.4874 27.1213L14.3669 27.9928C15.0452 28.3305 15.6827 28.7242 16.2756 29.1673L16.9473 28.6817C17.7866 28.0749 18.9457 28.1862 19.6547 28.941C20.3483 29.68 20.4006 30.8141 19.7784 31.6143L19.2372 32.3097C19.6492 32.9338 20.0048 33.5933 20.3003 34.2803L21.1287 34.1954C22.1588 34.0895 23.1069 34.7655 23.3431 35.7737C23.5746 36.7603 23.0531 37.7688 22.1138 38.1504L21.3008 38.4808C21.3455 39.2198 21.3249 39.969 21.2349 40.7212L21.9926 41.0607C22.9374 41.4844 23.4208 42.5439 23.1212 43.5348C22.8282 44.5053 21.8724 45.1176 20.8683 44.9788L19.9971 44.8579C19.6591 45.5362 19.2654 46.1737 18.8226 46.7666L19.3082 47.4386C19.3357 47.4767 19.3599 47.5159 19.3844 47.5547Z" fill="#FDBF43"/>
<path d="M13.2622 40.604C14.0155 38.1116 12.6056 35.4807 10.1132 34.7278C7.68042 33.9928 5.11621 35.3192 4.2948 37.701C3.50964 36.5738 2.81897 35.3763 2.2334 34.1191C4.28052 31.5161 7.78479 30.2933 11.1462 31.3092C15.5269 32.6327 18.0046 37.2568 16.6812 41.6371C16.1688 43.3334 15.161 44.7436 13.865 45.7591C12.6089 45.1732 11.4125 44.4822 10.2864 43.6963C11.667 43.2191 12.8074 42.1095 13.2622 40.604Z" fill="#FDA800"/>
<path d="M3.64587 36.7167C3.12439 35.8835 2.65161 35.0167 2.2334 34.1191C3.77478 32.1592 6.14197 30.9825 8.65234 30.9536C6.3822 31.853 4.52917 33.7427 3.76782 36.2622C3.72205 36.4135 3.6825 36.5651 3.64587 36.7167Z" fill="#FC9302"/>
<path d="M26.7323 0.15564C26.3152 0.852539 26.339 1.75232 26.8414 2.4342L27.3333 3.10144C26.8956 3.69836 26.5078 4.33997 26.1764 5.02112L25.3041 4.90833C24.2988 4.77869 23.3485 5.40015 23.0643 6.3728C22.7743 7.36707 23.2672 8.42175 24.2161 8.83667L24.9771 9.16919C24.8936 9.92212 24.88 10.6714 24.9316 11.41L24.1216 11.748C23.1863 12.1384 22.674 13.1514 22.9146 14.1361C23.1599 15.1421 24.1146 15.809 25.1437 15.694L25.9713 15.601C26.2727 16.2854 26.6345 16.9417 27.0524 17.562L26.5177 18.2622C25.9028 19.0679 25.9658 20.2017 26.666 20.9341C27.382 21.6826 28.5421 21.783 29.3756 21.1685L30.0428 20.6766C30.6398 21.1143 31.281 21.5021 31.9622 21.8335L31.8497 22.7058C31.7201 23.7114 32.3412 24.6614 33.3142 24.9456C34.3081 25.236 35.3632 24.7427 35.7781 23.7938L36.1106 23.0332C36.8635 23.1163 37.6128 23.1299 38.3514 23.0782L38.6895 23.8883C39.0795 24.8236 40.0928 25.3359 41.0775 25.0957C42.0835 24.85 42.7504 23.8956 42.6354 22.8666L42.5424 22.0389C43.2268 21.7372 43.8831 21.3754 44.5034 20.9579L45.2036 21.4926C46.0023 22.1019 47.1222 22.0444 47.855 21.3618C46.6395 10.2466 37.8347 1.41431 26.7323 0.15564ZM42.0007 11.8561C41.2709 14.3555 38.6532 15.7896 36.1538 15.0597C33.6548 14.3295 32.2203 11.7118 32.9506 9.2124C33.6804 6.71338 36.2985 5.2793 38.7975 6.00916C41.2965 6.73938 42.731 9.35706 42.0007 11.8561Z" fill="#F18BC3"/>
<path d="M34.9546 2.64075C32.4219 3.45227 30.3242 5.46606 29.5226 8.21118C28.2394 12.6039 30.76 17.2046 35.1527 18.4878C39.4773 19.7509 44.0036 17.3273 45.367 13.0602C43.0746 8.59131 39.4216 4.93616 34.9546 2.64075ZM40.885 11.5302C40.3349 13.4128 38.3629 14.4935 36.4798 13.9435C34.5972 13.3934 33.5168 11.4214 34.0669 9.53833C34.6166 7.65564 36.589 6.57532 38.4717 7.12537C40.3544 7.67505 41.4347 9.64746 40.885 11.5302Z" fill="#E659A9"/>
<path d="M38.5108 18.7566C37.417 18.895 36.2781 18.8167 35.1527 18.4878C30.76 17.2046 28.2394 12.6035 29.5226 8.21118C30.3242 5.46606 32.4219 3.4519 34.9546 2.64075C35.2538 2.79419 35.5486 2.95422 35.8401 3.12012C33.8475 4.11475 32.2585 5.90442 31.5851 8.21118C30.3019 12.6035 32.8225 17.2046 37.2152 18.4874C37.6462 18.6138 38.0791 18.7024 38.5108 18.7566Z" fill="#DF3D9B"/>
<path d="M16.3701 11.142C16.3712 10.7388 16.3353 10.3411 16.2654 9.9529L16.6748 9.72768C17.1476 9.46731 17.3604 8.90151 17.1769 8.39394C16.989 7.87539 16.4452 7.57729 15.9072 7.69741L15.4744 7.79409C15.2755 7.44912 15.0463 7.12246 14.7896 6.81814L15.0324 6.41641C15.3114 5.95461 15.2129 5.35806 14.8002 5.01052C14.3783 4.65566 13.7583 4.66921 13.3522 5.04202L13.0273 5.34084C12.686 5.14346 12.3242 4.975 11.9445 4.83877L11.954 4.37039C11.965 3.83059 11.5815 3.36331 11.0502 3.26882C10.5071 3.17251 9.97718 3.49404 9.81202 4.02029L9.67981 4.44216C9.27625 4.44143 8.87891 4.47695 8.49073 4.5469L8.26514 4.13748C8.00477 3.6647 7.43897 3.45193 6.93177 3.6354C6.41321 3.82327 6.11475 4.36709 6.23523 4.90505L6.33155 5.33791C5.98694 5.53677 5.66028 5.76602 5.35596 6.02273L4.95423 5.77993C4.49244 5.50088 3.89588 5.59939 3.54834 6.01211C3.19312 6.43398 3.20667 7.05398 3.57984 7.45974L3.87867 7.78494C3.68128 8.12624 3.51282 8.48769 3.37659 8.86746L2.90821 8.85793C2.36841 8.84731 1.90113 9.23074 1.80664 9.76211C1.70996 10.3052 2.03186 10.8351 2.55774 11.0003L2.97962 11.1325C2.97889 11.536 3.01477 11.9334 3.08472 12.3216L2.6753 12.5468C2.20252 12.8072 1.98938 13.3729 2.17322 13.8805C2.36109 14.3991 2.90454 14.6972 3.44287 14.5771L3.87574 14.4804C4.07459 14.8253 4.30384 15.152 4.56055 15.4563L4.31775 15.8577C4.03833 16.3198 4.13721 16.916 4.54993 17.2636C4.97181 17.6188 5.5918 17.6052 5.99756 17.2321L6.32276 16.9336C6.66407 17.131 7.02588 17.2995 7.40528 17.4357L7.39576 17.9041C7.38514 18.4435 7.76856 18.9112 8.29993 19.0056C8.84266 19.102 9.37293 18.7804 9.53809 18.2542L9.67029 17.8323C10.0735 17.833 10.4712 17.7975 10.8594 17.7276L11.0846 18.137C11.345 18.6098 11.9108 18.8225 12.4183 18.6387C12.9365 18.4512 13.235 17.9074 13.1149 17.3694L13.0182 16.9365C13.3628 16.7373 13.6898 16.5084 13.9941 16.2517L14.3955 16.4942C14.8577 16.7736 15.4539 16.6751 15.8014 16.2624C16.1566 15.8405 16.1431 15.2205 15.7699 14.8144L15.4714 14.4895C15.6688 14.1482 15.8373 13.7864 15.9735 13.4066L16.4419 13.4162C16.9813 13.4271 17.4486 13.0437 17.5435 12.5124C17.6398 11.9693 17.3182 11.4394 16.792 11.2742L16.3701 11.142ZM12.1466 11.5771C11.9038 12.9419 10.6001 13.8516 9.23523 13.6088C7.87037 13.366 6.9607 12.0626 7.2035 10.6974C7.44629 9.33254 8.75 8.42288 10.1149 8.66567C11.4797 8.90847 12.3894 10.2122 12.1466 11.5771Z" fill="#0ED1B2"/>
<path d="M10.4937 6.53798C7.95363 6.08608 5.52785 7.7787 5.07594 10.3187C4.62404 12.8588 6.31667 15.2846 8.85671 15.7365C11.3967 16.1884 13.8225 14.4958 14.2744 11.9557C14.7263 9.41567 13.0337 6.98989 10.4937 6.53798ZM12.8268 11.6979C12.517 13.4389 10.8551 14.5987 9.11452 14.2888C7.37355 13.979 6.21376 12.3172 6.52358 10.5766C6.83339 8.83596 8.49526 7.6758 10.2359 7.98561C11.9768 8.29543 13.1366 9.95729 12.8268 11.6979Z" fill="#0AB59E"/>
<path d="M10.4149 15.75C9.91176 15.8306 9.38698 15.8309 8.85671 15.7365C6.31667 15.2846 4.62404 12.8588 5.07594 10.3187C5.52272 7.808 7.89797 6.12672 10.4061 6.52479C8.49782 6.83058 6.90407 8.30897 6.54628 10.3187C6.5027 10.5656 6.47963 10.8109 6.47487 11.0537C6.47341 11.1134 6.47341 11.1731 6.47487 11.2321C6.51699 13.4169 8.09462 15.3391 10.3274 15.7365C10.3567 15.7416 10.3856 15.7453 10.4149 15.75Z" fill="#01988C"/>
<path d="M42.3999 39.4072C41.9345 38.614 41.1383 38.0215 40.162 37.8479C38.3914 37.5326 36.7006 38.7125 36.3853 40.4831C36.1579 41.7616 36.7097 42.9979 37.7003 43.7054C36.1623 44.7769 34.4934 45.6734 32.7217 46.3648C32.4826 46.0554 32.2643 45.7298 32.0684 45.3907L31.507 45.516C30.809 45.672 30.1037 45.2849 29.8601 44.6122C29.6217 43.9541 29.8979 43.2202 30.5113 42.8822L31.0423 42.5899C30.9518 42.0864 30.9053 41.5708 30.9064 41.0475L30.3589 40.8761C29.6767 40.6618 29.2592 39.9741 29.3844 39.2699C29.5071 38.5807 30.1136 38.083 30.8134 38.0973L31.4209 38.1093C31.5978 37.6172 31.8164 37.1477 32.0721 36.7049L31.6846 36.2834C31.2008 35.7568 31.1833 34.9526 31.644 34.4055C32.0948 33.8697 32.8686 33.7419 33.4677 34.1041L33.9884 34.419C34.3832 34.0862 34.8073 33.7888 35.2544 33.5306L35.1292 32.9692C34.9735 32.2712 35.3603 31.5659 36.033 31.3224C36.6911 31.084 37.425 31.3601 37.763 31.9735L38.0552 32.5045C38.5587 32.414 39.0744 32.3675 39.5977 32.3686L39.7694 31.8211C39.9833 31.1389 40.6711 30.7214 41.3753 30.8466C42.0645 30.9693 42.5622 31.5758 42.5479 32.2756L42.5358 32.8831C43.0284 33.06 43.4975 33.2787 43.9402 33.5346L44.3617 33.1472C44.8814 32.6696 45.6702 32.6469 46.2169 33.0886C45.2718 35.3968 43.9779 37.5249 42.3999 39.4072Z" fill="#7ECD00"/>
<path d="M43.8915 37.4282C43.4279 38.1138 42.9305 38.7744 42.4006 39.4072C41.9348 38.614 41.1387 38.0215 40.1624 37.8475C38.3917 37.5326 36.7009 38.7125 36.3856 40.4832C36.1582 41.7616 36.7101 42.9979 37.701 43.7054C37.0386 44.1669 36.3508 44.5935 35.6422 44.9875C34.4821 43.9574 33.75 42.4552 33.75 40.7812C33.75 37.6747 36.2684 35.1562 39.375 35.1562C41.2251 35.1562 42.8661 36.0498 43.8915 37.4282Z" fill="#6BAE01"/>
<path d="M36.6647 44.3866C36.3292 44.5946 35.9883 44.7953 35.6422 44.9875C34.4821 43.9574 33.75 42.4552 33.75 40.7812C33.75 37.6747 36.2684 35.1562 39.375 35.1562C39.6464 35.1562 39.9122 35.1775 40.1733 35.2148C37.4491 35.6063 35.3551 37.9486 35.3551 40.7812C35.3551 42.1538 35.848 43.4103 36.6647 44.3866Z" fill="#5A9001"/>
</g>
<defs>
<clipPath id="clip0">
<rect width="48" height="48" fill="white"/>
</clipPath>
</defs>
</svg>
