<svg width="48" height="48" viewBox="0 0 48 48" fill="none" xmlns="http://www.w3.org/2000/svg">
<path d="M24 48C36.6853 48 46.9688 37.7165 46.9688 25.0312C46.9688 12.346 36.6853 2.0625 24 2.0625C11.3147 2.0625 1.03125 12.346 1.03125 25.0312C1.03125 37.7165 11.3147 48 24 48Z" fill="#445EA0"/>
<path d="M9.44235 39.5291C9.18454 39.5291 8.9736 39.3182 8.9736 39.0603V6.67938H5.87207C5.61426 6.67938 5.40332 6.89032 5.40332 7.14813V38.5118C6.65638 40.2375 8.14251 41.7828 9.81745 43.0995H35.7298C35.9876 43.0995 36.1985 42.8885 36.1985 42.6307V39.5292L9.44235 39.5291Z" fill="#FFAF10"/>
<path d="M7.18457 7.14813C7.18457 6.89032 7.39551 6.67938 7.65332 6.67938H5.87207C5.61426 6.67938 5.40332 6.89032 5.40332 7.14813V38.5118C5.95335 39.2693 6.54848 39.992 7.18457 40.676V7.14813Z" fill="#EF9614"/>
<path d="M12.5363 36.1543C12.2785 36.1543 12.0675 35.9434 12.0675 35.6856V3.37482H9.17676C8.91895 3.37482 8.70801 3.58575 8.70801 3.84357V39.3261C8.70801 39.584 8.91895 39.7948 9.17676 39.7948H39.0346C39.2924 39.7948 39.5034 39.584 39.5034 39.3261V36.1543H12.5363Z" fill="#FF9518"/>
<path d="M10.3955 39.3261V3.84357C10.3955 3.58575 10.6064 3.37482 10.8643 3.37482H9.17676C8.91895 3.37482 8.70801 3.58575 8.70801 3.84357V39.3261C8.70801 39.584 8.91895 39.7948 9.17676 39.7948H10.8643C10.6064 39.7948 10.3955 39.584 10.3955 39.3261Z" fill="#EF8318"/>
<path d="M42.5969 35.9513C42.5969 36.2091 42.386 36.42 42.1282 36.42H12.2705C12.0127 36.42 11.8018 36.2091 11.8018 35.9513V0.46875C11.8018 0.210938 12.0127 0 12.2705 0H42.1282C42.386 0 42.5969 0.210938 42.5969 0.46875V35.9513Z" fill="#D9EAFC"/>
<path d="M13.6622 35.9513V0.46875C13.6622 0.210938 13.8732 0 14.131 0H12.2705C12.0127 0 11.8018 0.210938 11.8018 0.46875V35.9513C11.8018 36.2091 12.0127 36.42 12.2705 36.42H14.131C13.8732 36.42 13.6622 36.2091 13.6622 35.9513Z" fill="#C3DDF4"/>
<path d="M38.9149 4.7619H32.3936C32.0051 4.7619 31.6904 4.44718 31.6904 4.05878C31.6904 3.67046 32.0051 3.35565 32.3936 3.35565H38.9149C39.3033 3.35565 39.618 3.67046 39.618 4.05878C39.618 4.44718 39.3032 4.7619 38.9149 4.7619Z" fill="#DB722C"/>
<path d="M38.9149 7.1524H32.3936C32.0051 7.1524 31.6904 6.83759 31.6904 6.44928C31.6904 6.06087 32.0051 5.74615 32.3936 5.74615H38.9149C39.3033 5.74615 39.618 6.06087 39.618 6.44928C39.618 6.83759 39.3032 7.1524 38.9149 7.1524Z" fill="#DB722C"/>
<path d="M38.9149 9.54285H32.3936C32.0051 9.54285 31.6904 9.22803 31.6904 8.83972C31.6904 8.45141 32.0051 8.1366 32.3936 8.1366H38.9149C39.3033 8.1366 39.618 8.45141 39.618 8.83972C39.618 9.22813 39.3032 9.54285 38.9149 9.54285Z" fill="#DB722C"/>
<path d="M38.9149 11.9333H32.3936C32.0051 11.9333 31.6904 11.6185 31.6904 11.2302C31.6904 10.8418 32.0051 10.5271 32.3936 10.5271H38.9149C39.3033 10.5271 39.618 10.8418 39.618 11.2302C39.618 11.6185 39.3032 11.9333 38.9149 11.9333Z" fill="#DB722C"/>
<path d="M26.7561 28.6201H15.7725C15.3841 28.6201 15.0693 28.3053 15.0693 27.917C15.0693 27.5287 15.3841 27.2139 15.7725 27.2139H26.756C27.1444 27.2139 27.4591 27.5287 27.4591 27.917C27.4592 28.3053 27.1444 28.6201 26.7561 28.6201Z" fill="#52BBEF"/>
<path d="M26.7561 31.0106H15.7725C15.3841 31.0106 15.0693 30.6958 15.0693 30.3074C15.0693 29.9191 15.3841 29.6043 15.7725 29.6043H26.756C27.1444 29.6043 27.4591 29.9191 27.4591 30.3074C27.4592 30.6958 27.1444 31.0106 26.7561 31.0106Z" fill="#52BBEF"/>
<path d="M26.7561 33.4011H15.7725C15.3841 33.4011 15.0693 33.0863 15.0693 32.6979C15.0693 32.3096 15.3841 31.9948 15.7725 31.9948H26.756C27.1444 31.9948 27.4591 32.3096 27.4591 32.6979C27.4592 33.0862 27.1444 33.4011 26.7561 33.4011Z" fill="#52BBEF"/>
<path d="M38.9148 16.1052H28.9087C28.5203 16.1052 28.2056 15.7904 28.2056 15.402C28.2056 15.0137 28.5203 14.6989 28.9087 14.6989H38.9148C39.3032 14.6989 39.6179 15.0137 39.6179 15.402C39.6179 15.7904 39.3031 16.1052 38.9148 16.1052Z" fill="#FE3745"/>
<path d="M38.9148 18.4957H28.9087C28.5203 18.4957 28.2056 18.1809 28.2056 17.7925C28.2056 17.4042 28.5203 17.0894 28.9087 17.0894H38.9148C39.3032 17.0894 39.6179 17.4042 39.6179 17.7925C39.6179 18.1809 39.3031 18.4957 38.9148 18.4957Z" fill="#FE3745"/>
<path d="M38.9148 20.8861H28.9087C28.5203 20.8861 28.2056 20.5712 28.2056 20.183C28.2056 19.7946 28.5203 19.4799 28.9087 19.4799H38.9148C39.3032 19.4799 39.6179 19.7946 39.6179 20.183C39.6179 20.5712 39.3031 20.8861 38.9148 20.8861Z" fill="#FE3745"/>
<path d="M38.9148 23.2766H28.9087C28.5203 23.2766 28.2056 22.9618 28.2056 22.5735C28.2056 22.1852 28.5203 21.8704 28.9087 21.8704H38.9148C39.3032 21.8704 39.6179 22.1852 39.6179 22.5735C39.6179 22.9618 39.3031 23.2766 38.9148 23.2766Z" fill="#FE3745"/>
<path d="M14.5098 20.227H17.2512C17.2512 18.713 18.4785 17.4855 19.9925 17.4855V14.7443C16.9647 14.7443 14.5098 17.1989 14.5098 20.227Z" fill="#FE3745"/>
<path d="M21.3828 13.3539V16.0953C22.8969 16.0953 24.1242 17.3226 24.1242 18.8366H26.8657C26.8657 15.8085 24.4108 13.3539 21.3828 13.3539Z" fill="#91E0E8"/>
<path d="M22.7339 20.2271C22.7339 21.7409 21.5067 22.9684 19.9926 22.9684C18.4786 22.9684 17.2513 21.7409 17.2513 20.2271H14.5098C14.5098 23.255 16.9647 25.7098 19.9926 25.7098C23.0206 25.7098 25.4754 23.255 25.4754 20.2271H22.7339Z" fill="#FFAF10"/>
<path d="M17.6587 10.7929V4.24597C17.6587 4.09128 17.5321 3.96472 17.3774 3.96472H15.6729C15.5182 3.96472 15.3916 4.09128 15.3916 4.24597V10.7929H17.6587Z" fill="#FFAF10"/>
<path d="M21.326 10.7929V6.02722C21.326 5.87253 21.1995 5.74597 21.0448 5.74597H19.3403C19.1856 5.74597 19.0591 5.87253 19.0591 6.02722V10.7929H21.326Z" fill="#FE3745"/>
<path d="M24.993 10.7929V8.18347C24.993 8.02878 24.8665 7.90222 24.7118 7.90222H23.0073C22.8526 7.90222 22.7261 8.02878 22.7261 8.18347V10.7929H24.993Z" fill="#37C47A"/>
<path d="M28.6601 10.7929V4.24597C28.6601 4.09128 28.5336 3.96472 28.3789 3.96472H26.6743C26.5196 3.96472 26.3931 4.09128 26.3931 4.24597V10.7929H28.6601Z" fill="#91E0E8"/>
<path d="M35.5867 29.9726C35.5867 29.8175 35.7129 29.6914 35.8679 29.6914H37.1393V26.5451C37.1393 26.2873 36.9283 26.0764 36.6705 26.0764H32.4404C32.1826 26.0764 31.9717 26.2873 31.9717 26.5451V30.7752C31.9717 31.033 32.1826 31.2439 32.4404 31.2439H35.5867V29.9726Z" fill="#FE3745"/>
<path d="M38.9148 32.5506C38.9148 32.8084 38.7039 33.0193 38.4461 33.0193H35.8682C35.6104 33.0193 35.3994 32.8084 35.3994 32.5506V29.9727C35.3994 29.7148 35.6104 29.5039 35.8682 29.5039H38.4461C38.7039 29.5039 38.9148 29.7148 38.9148 29.9727V32.5506Z" fill="#37C47A"/>
<path d="M29.1451 11.9335H14.9072C14.5188 11.9335 14.2041 11.6187 14.2041 11.2303C14.2041 10.8419 14.5188 10.5272 14.9072 10.5272H29.1451C29.5335 10.5272 29.8483 10.8419 29.8483 11.2303C29.8483 11.6187 29.5335 11.9335 29.1451 11.9335Z" fill="#52BBEF"/>
</svg>
