<svg width="48" height="48" viewBox="0 0 48 48" fill="none" xmlns="http://www.w3.org/2000/svg">
<path d="M23.9999 47.9799C37.2437 47.9799 47.9799 37.2437 47.9799 24C47.9799 10.7563 37.2437 0.0200806 23.9999 0.0200806C10.7562 0.0200806 0.0200195 10.7563 0.0200195 24C0.0200195 37.2437 10.7562 47.9799 23.9999 47.9799Z" fill="#382B73"/>
<path d="M23.9997 44.7462C35.4575 44.7462 44.7459 35.4578 44.7459 24C44.7459 12.5421 35.4575 3.25372 23.9997 3.25372C12.5418 3.25372 3.25342 12.5421 3.25342 24C3.25342 35.4578 12.5418 44.7462 23.9997 44.7462Z" fill="#473080"/>
<path d="M37.0333 25.1468C36.875 24.9885 36.6565 24.8907 36.4151 24.8907H33.9191V14.5075V13.905C33.9191 13.2 33.3475 12.6284 32.6426 12.6284H28.4266L28.274 12.0808C28.1716 11.7128 27.8362 11.4584 27.4544 11.4584H26.0015H25.6493C25.6493 10.5478 24.911 9.80969 24.0004 9.80969C23.0898 9.80969 22.3517 10.5478 22.3517 11.4584H21.9993H20.5464C20.1644 11.4584 19.8292 11.7128 19.7268 12.0808L19.5741 12.6284H15.3576C14.6526 12.6284 14.0811 13.1998 14.0811 13.905V14.5075V37.9182V38.5207C14.0811 39.2257 14.6526 39.7972 15.3576 39.7972H32.6428C33.3477 39.7972 33.9193 39.2257 33.9193 38.5207V37.9182V35.8918H36.4153C36.8981 35.8918 37.2896 35.5003 37.2896 35.0175V25.7652C37.2894 25.5236 37.1916 25.3051 37.0333 25.1468ZM24.0002 10.6606C24.4408 10.6606 24.7979 11.0177 24.7979 11.4584C24.7979 11.899 24.4408 12.2561 24.0002 12.2561C23.5596 12.2561 23.2025 11.899 23.2025 11.4584C23.2025 11.0177 23.5596 10.6606 24.0002 10.6606Z" fill="#382B73"/>
<path d="M32.6428 38.3912H15.3576C14.6526 38.3912 14.0811 37.8197 14.0811 37.1147V13.1017C14.0811 12.3967 14.6526 11.8251 15.3576 11.8251H32.6428C33.3477 11.8251 33.9193 12.3965 33.9193 13.1017V37.1149C33.9193 37.8198 33.3477 38.3912 32.6428 38.3912Z" fill="#E43D91"/>
<path d="M32.6428 37.7887H15.3576C14.6526 37.7887 14.0811 37.2171 14.0811 36.5122V12.4991C14.0811 11.7942 14.6526 11.2226 15.3576 11.2226H32.6428C33.3477 11.2226 33.9193 11.794 33.9193 12.4991V36.5124C33.9193 37.2173 33.3477 37.7887 32.6428 37.7887Z" fill="#EF5A9D"/>
<path d="M31.801 36.4088H16.2C15.965 36.4088 15.7744 36.2182 15.7744 35.9834V13.8315C15.7744 13.5965 15.965 13.4061 16.2 13.4061H31.801C32.036 13.4061 32.2266 13.5965 32.2266 13.8315V35.9832C32.2266 36.2182 32.036 36.4088 31.801 36.4088Z" fill="#E43D91"/>
<path d="M31.801 36.0071H16.2C15.965 36.0071 15.7744 35.8165 15.7744 35.5817V13.4298C15.7744 13.1948 15.965 13.0045 16.2 13.0045H31.801C32.036 13.0045 32.2266 13.1948 32.2266 13.4298V35.5815C32.2266 35.8165 32.036 36.0071 31.801 36.0071Z" fill="white"/>
<path d="M23.5653 36.0071H24.4355L24.4355 14.6799H23.5653L23.5653 36.0071Z" fill="#E6E7E8"/>
<path d="M28.9114 13.6001L28.274 11.3132C28.1715 10.9453 27.8362 10.6908 27.4544 10.6908H24.7981C24.7981 11.1314 24.441 11.4885 24.0004 11.4885C23.5599 11.4885 23.2026 11.1314 23.2026 10.6908H20.5464C20.1644 10.6908 19.8292 10.9453 19.7268 11.3132L19.0893 13.6001C18.9383 14.1426 19.346 14.6796 19.9091 14.6796H28.0922C28.6548 14.6796 29.0627 14.1426 28.9114 13.6001Z" fill="#E6E7E8"/>
<path d="M28.9114 12.9621L28.274 10.6751C28.1715 10.3072 27.8362 10.0527 27.4544 10.0527H24.7981C24.7981 10.4934 24.441 10.8505 24.0004 10.8505C23.5599 10.8505 23.2026 10.4934 23.2026 10.0527H20.5464C20.1644 10.0527 19.8292 10.3072 19.7268 10.6751L19.0893 12.9621C18.9383 13.5045 19.346 14.0416 19.9091 14.0416H28.0922C28.6548 14.0416 29.0627 13.5043 28.9114 12.9621Z" fill="#FEDE3A"/>
<path d="M28.8067 12.5862C28.6573 12.8184 28.398 12.9777 28.0917 12.9777H19.9086C19.6026 12.9777 19.3431 12.8182 19.1937 12.5862L19.0888 12.962C18.9378 13.5045 19.3455 14.0415 19.9086 14.0415H28.0917C28.6549 14.0415 29.0626 13.5045 28.9114 12.962L28.8067 12.5862Z" fill="#F7CB15"/>
<path d="M24 12.0537C25.1052 12.0537 26.0011 11.1578 26.0011 10.0526H24.9682C24.9682 10.5874 24.5348 11.0208 24 11.0208C23.4653 11.0208 23.0317 10.5872 23.0317 10.0526H21.999C21.9988 11.1578 22.8948 12.0537 24 12.0537Z" fill="#F7CB15"/>
<path d="M24.0002 8.40387C23.0896 8.40387 22.3516 9.14194 22.3516 10.0525C22.3516 10.9631 23.0896 11.7012 24.0002 11.7012C24.9108 11.7012 25.6489 10.9631 25.6489 10.0525C25.6489 9.14194 24.9108 8.40387 24.0002 8.40387ZM24.0002 10.8503C23.5598 10.8503 23.2025 10.4932 23.2025 10.0525C23.2025 9.6119 23.5598 9.25481 24.0002 9.25481C24.4409 9.25481 24.798 9.6119 24.798 10.0525C24.798 10.4932 24.4409 10.8503 24.0002 10.8503Z" fill="#FEDE3A"/>
<path d="M29.6637 18.0838H25.6512C25.3311 18.0838 25.0718 17.8243 25.0718 17.5044C25.0718 17.1845 25.3313 16.925 25.6512 16.925H29.6637C29.9839 16.925 30.2431 17.1845 30.2431 17.5044C30.2431 17.8243 29.9839 18.0838 29.6637 18.0838Z" fill="#D1D3D4"/>
<path d="M28.9772 22.1005H25.6507C25.3306 22.1005 25.0713 21.8411 25.0713 21.5211C25.0713 21.2012 25.3308 20.9417 25.6507 20.9417H28.9772C29.2973 20.9417 29.5566 21.2012 29.5566 21.5211C29.5568 21.8411 29.2973 22.1005 28.9772 22.1005Z" fill="#D1D3D4"/>
<path d="M30.2826 24.1089H25.6507C25.3306 24.1089 25.0713 23.8494 25.0713 23.5295C25.0713 23.2096 25.3308 22.9501 25.6507 22.9501H30.2826C30.6027 22.9501 30.862 23.2096 30.862 23.5295C30.8622 23.8494 30.6027 24.1089 30.2826 24.1089Z" fill="#D1D3D4"/>
<path d="M29.0948 26.1173H25.6512C25.3311 26.1173 25.0718 25.8578 25.0718 25.5378C25.0718 25.2177 25.3313 24.9584 25.6512 24.9584H29.0948C29.4149 24.9584 29.6742 25.2179 29.6742 25.5378C29.6742 25.8578 29.4147 26.1173 29.0948 26.1173Z" fill="#D1D3D4"/>
<path d="M21.7723 18.0838H17.7596C17.4395 18.0838 17.1802 17.8243 17.1802 17.5044C17.1802 17.1845 17.4397 16.925 17.7596 16.925H21.7721C22.092 16.925 22.3515 17.1845 22.3515 17.5044C22.3517 17.8243 22.0922 18.0838 21.7723 18.0838Z" fill="#D1D3D4"/>
<path d="M30.8019 20.0922H25.6512C25.3311 20.0922 25.0718 19.8327 25.0718 19.5128C25.0718 19.1928 25.3313 18.9333 25.6512 18.9333H30.8019C31.122 18.9333 31.3813 19.1928 31.3813 19.5128C31.3813 19.8327 31.1218 20.0922 30.8019 20.0922Z" fill="#D1D3D4"/>
<path d="M29.6637 29.5648H25.6512C25.3311 29.5648 25.0718 29.3054 25.0718 28.9854C25.0718 28.6653 25.3313 28.406 25.6512 28.406H29.6637C29.9839 28.406 30.2431 28.6655 30.2431 28.9854C30.2431 29.3056 29.9839 29.5648 29.6637 29.5648Z" fill="#D1D3D4"/>
<path d="M28.9772 33.5816H25.6507C25.3306 33.5816 25.0713 33.3221 25.0713 33.0022C25.0713 32.6821 25.3308 32.4228 25.6507 32.4228H28.9772C29.2973 32.4228 29.5566 32.6823 29.5566 33.0022C29.5568 33.3223 29.2973 33.5816 28.9772 33.5816Z" fill="#D1D3D4"/>
<path d="M20.5757 29.5648H17.7596C17.4395 29.5648 17.1802 29.3054 17.1802 28.9854C17.1802 28.6653 17.4397 28.406 17.7596 28.406H20.5757C20.8959 28.406 21.1551 28.6655 21.1551 28.9854C21.1551 29.3056 20.8957 29.5648 20.5757 29.5648Z" fill="#D1D3D4"/>
<path d="M22.5003 31.5732H17.7596C17.4395 31.5732 17.1802 31.3137 17.1802 30.9938C17.1802 30.6736 17.4397 30.4144 17.7596 30.4144H22.5003C22.8203 30.4144 23.0798 30.6738 23.0798 30.9938C23.08 31.3139 22.8205 31.5732 22.5003 31.5732Z" fill="#D1D3D4"/>
<path d="M30.8019 31.5732H25.6512C25.3311 31.5732 25.0718 31.3137 25.0718 30.9938C25.0718 30.6736 25.3313 30.4144 25.6512 30.4144H30.8019C31.122 30.4144 31.3813 30.6738 31.3813 30.9938C31.3813 31.3139 31.1218 31.5732 30.8019 31.5732Z" fill="#D1D3D4"/>
<path d="M33.0369 24.2883H32.2266V35.2891H33.9196V24.2883H33.0369Z" fill="#E43D91"/>
<path d="M32.2266 24.2883H30.5418H27.1633C26.6805 24.2883 26.2891 24.6797 26.2891 25.1625V25.9821C26.2891 25.9821 26.2891 25.9821 26.2891 25.9819V33.2857C26.2891 33.2857 26.2891 33.2857 26.2891 33.2855V34.4148C26.2891 34.5631 26.3294 34.7006 26.3947 34.823C26.4311 34.891 26.4742 34.9545 26.5264 35.0103C26.5331 35.0176 26.5383 35.026 26.5451 35.033C26.7034 35.1913 26.9219 35.2891 27.1633 35.2891H32.2266V24.2883Z" fill="#D1D3D4"/>
<path d="M36.4152 23.4849H27.1628C26.68 23.4849 26.2886 23.8763 26.2886 24.3591V33.6115C26.2886 34.0943 26.68 34.4857 27.1628 34.4857H36.4152C36.898 34.4857 37.2894 34.0943 37.2894 33.6115V24.3591C37.2894 23.8763 36.8982 23.4849 36.4152 23.4849Z" fill="#F7CB15"/>
<path d="M36.0303 32.3146H33.942C33.7815 32.3146 33.6514 32.1845 33.6514 32.024V30.7891C33.6514 30.6286 33.7815 30.4985 33.942 30.4985H36.0303C36.1907 30.4985 36.3209 30.6286 36.3209 30.7891V32.024C36.3209 32.1845 36.1907 32.3146 36.0303 32.3146Z" fill="#FEDE3A"/>
<path d="M29.4104 32.3146H27.3402C27.1747 32.3146 27.0405 32.1805 27.0405 32.015C27.0405 31.8495 27.1747 31.7153 27.3402 31.7153H29.4104C29.5759 31.7153 29.71 31.8495 29.71 32.015C29.71 32.1805 29.5759 32.3146 29.4104 32.3146Z" fill="#FEDE3A"/>
<path d="M29.4104 31.2432H27.3402C27.1747 31.2432 27.0405 31.1091 27.0405 30.9436C27.0405 30.7781 27.1747 30.6439 27.3402 30.6439H29.4104C29.5759 30.6439 29.71 30.7781 29.71 30.9436C29.71 31.1091 29.5759 31.2432 29.4104 31.2432Z" fill="#FEDE3A"/>
<path d="M36.4152 23.4849H27.1628C26.68 23.4849 26.2886 23.8763 26.2886 24.3591V25.1787C26.2886 24.6959 26.68 24.3045 27.1628 24.3045H36.4152C36.898 24.3045 37.2894 24.6959 37.2894 25.1787V24.3591C37.2894 23.8763 36.8982 23.4849 36.4152 23.4849Z" fill="#FEDE3A"/>
<path d="M36.4152 33.3566H27.1628C26.68 33.3566 26.2886 32.9652 26.2886 32.4824V33.6117C26.2886 34.0945 26.68 34.4859 27.1628 34.4859H36.4152C36.898 34.4859 37.2894 34.0945 37.2894 33.6117V32.4824C37.2894 32.9652 36.8982 33.3566 36.4152 33.3566Z" fill="#E7AD27"/>
<path d="M33.1678 25.9974H30.4103C30.1424 25.9974 29.9253 25.7803 29.9253 25.5124C29.9253 25.2444 30.1424 25.0273 30.4103 25.0273H33.1678C33.4357 25.0273 33.6528 25.2444 33.6528 25.5124C33.6528 25.7801 33.4357 25.9974 33.1678 25.9974Z" fill="#E7AD27"/>
<path d="M30.4103 25.2577H33.1678C33.3958 25.2577 33.5857 25.4156 33.6376 25.6276C33.6466 25.5905 33.6528 25.5523 33.6528 25.5124C33.6528 25.2444 33.4357 25.0273 33.1678 25.0273H30.4103C30.1424 25.0273 29.9253 25.2444 29.9253 25.5124C29.9253 25.5523 29.9315 25.5905 29.9406 25.6276C29.9924 25.4156 30.1824 25.2577 30.4103 25.2577Z" fill="#FEDE3A"/>
</svg>
