<svg width="48" height="48" viewBox="0 0 48 48" fill="none" xmlns="http://www.w3.org/2000/svg">
<path d="M24 48C37.2548 48 48 37.2548 48 24C48 10.7452 37.2548 0 24 0C10.7452 0 0 10.7452 0 24C0 37.2548 10.7452 48 24 48Z" fill="#7584F2"/>
<path d="M47.9997 24C47.9997 22.5468 47.8705 21.124 47.6231 19.742L39.7249 11.8439L8.27441 36.1561L19.7417 47.6234C21.1237 47.8708 22.5465 48 23.9997 48C37.2545 48 47.9997 37.2548 47.9997 24Z" fill="#4253CE"/>
<path d="M8.27441 11.8439H39.7249V36.1561H8.27441V11.8439Z" fill="#E9EDF5"/>
<path d="M24.0112 11.8439H39.7252V36.1561H24.0112V11.8439Z" fill="#CDD2E1"/>
<path d="M11.6416 15.3619H36.3585V32.6381H11.6416V15.3619Z" fill="white"/>
<path d="M24.0112 15.3619H36.3584V32.6381H24.0112V15.3619Z" fill="#E9EDF5"/>
<path d="M33.4863 40.9025L30.3791 38.8562L27.272 40.9025V31.4096H33.4863V40.9025Z" fill="#FF6C52"/>
<path d="M30.374 31.4096L30.3792 38.8562L33.4863 40.9025V31.4096H30.374Z" fill="#FF432E"/>
<path d="M14.3052 17.8137H22.4479V20.6262H14.3052V17.8137Z" fill="#CDD2E1"/>
<path d="M14.3052 27.374H22.4479V30.1865H14.3052V27.374Z" fill="#CDD2E1"/>
<path d="M14.3052 22.5938H34.2802V25.4062H14.3052V22.5938Z" fill="#CDD2E1"/>
<path d="M24.0112 22.5938H34.28V25.4062H24.0112V22.5938Z" fill="#AFB4C8"/>
<path d="M30.3789 35.5744C32.9812 35.5744 35.0907 33.4649 35.0907 30.8626C35.0907 28.2603 32.9812 26.1507 30.3789 26.1507C27.7766 26.1507 25.667 28.2603 25.667 30.8626C25.667 33.4649 27.7766 35.5744 30.3789 35.5744Z" fill="#FFCE00"/>
<path d="M30.3792 26.1507C30.3775 26.1507 30.3758 26.1508 30.374 26.1508V35.5742C30.3757 35.5742 30.3774 35.5743 30.3792 35.5743C32.9815 35.5743 35.091 33.4647 35.091 30.8624C35.091 28.2603 32.9814 26.1507 30.3792 26.1507Z" fill="#FDBA12"/>
</svg>
