<svg width="48" height="48" viewBox="0 0 48 48" fill="none" xmlns="http://www.w3.org/2000/svg">
<path d="M24 48C37.2548 48 48 37.2548 48 24C48 10.7452 37.2548 0 24 0C10.7452 0 0 10.7452 0 24C0 37.2548 10.7452 48 24 48Z" fill="#F6C863"/>
<path d="M32.718 13.365V39.375H8.67676V8.625H27.978L32.718 13.365Z" fill="#EEEFEE"/>
<path d="M32.718 13.365H27.978V8.625L32.718 13.365Z" fill="#DBD8DD"/>
<path d="M18.165 10.995H26.0813V11.7945H18.165V10.995Z" fill="#DBD8DD"/>
<path d="M10.7964 10.995H15.9774V11.7945H10.7964V10.995Z" fill="#DBD8DD"/>
<path d="M10.7964 14.1813H26.081V14.9808H10.7964V14.1813Z" fill="#DBD8DD"/>
<path d="M22.5405 17.3682H30.7905V18.1677H22.5405V17.3682Z" fill="#DBD8DD"/>
<path d="M10.7964 17.3682H20.9146V18.1677H10.7964V17.3682Z" fill="#DBD8DD"/>
<path d="M10.7964 20.5544H30.7899V21.3539H10.7964V20.5544Z" fill="#DBD8DD"/>
<path d="M10.604 23.7292H15.7903V24.5287H10.604V23.7292Z" fill="#DBD8DD"/>
<path d="M17.853 23.7292H30.7905V24.5287H17.853V23.7292Z" fill="#DBD8DD"/>
<path d="M10.604 26.9156H30.7903V27.7151H10.604V26.9156Z" fill="#DBD8DD"/>
<path d="M10.604 30.1023H23.7279V30.9018H10.604V30.1023Z" fill="#DBD8DD"/>
<path d="M10.604 33.6022H28.2875V34.4017H10.604V33.6022Z" fill="#DBD8DD"/>
<path d="M34.0003 23.4C33.9526 23.3745 33.917 23.3311 33.9013 23.2793C33.8857 23.2276 33.8912 23.1717 33.9167 23.124L35.5415 20.0828C35.6011 19.9717 35.7023 19.8887 35.8229 19.8521C35.9435 19.8155 36.0738 19.8282 36.185 19.8874L36.9193 20.2796C36.944 20.2916 36.9661 20.3084 36.9842 20.3291C37.0023 20.3498 37.016 20.374 37.0245 20.4001C37.033 20.4262 37.0362 20.4538 37.0338 20.4812C37.0314 20.5085 37.0234 20.5352 37.0105 20.5594C36.9976 20.5836 36.9798 20.605 36.9584 20.6222C36.937 20.6395 36.9124 20.6522 36.8859 20.6597C36.8595 20.6671 36.8318 20.6692 36.8045 20.6657C36.7773 20.6621 36.751 20.6532 36.7273 20.6393L35.993 20.247C35.9772 20.2385 35.9586 20.2367 35.9414 20.2419C35.9241 20.2471 35.9097 20.2589 35.9012 20.2748L34.2744 23.316C34.249 23.3633 34.2059 23.3986 34.1546 23.4143C34.1033 23.43 34.0478 23.4249 34.0003 23.4Z" fill="#828A9E"/>
<path d="M39.3063 19.668L38.6583 20.8811L36.8936 19.9383L37.5416 18.7252C37.5499 18.7095 37.5614 18.6955 37.5751 18.6842C37.5889 18.6729 37.6048 18.6644 37.6219 18.6592C37.6389 18.654 37.6568 18.6522 37.6746 18.654C37.6923 18.6557 37.7096 18.6609 37.7253 18.6693L39.2504 19.4842C39.2662 19.4926 39.2801 19.504 39.2914 19.5178C39.3028 19.5316 39.3113 19.5474 39.3165 19.5645C39.3216 19.5816 39.3234 19.5995 39.3217 19.6172C39.3199 19.635 39.3147 19.6522 39.3063 19.668Z" fill="#828A9E"/>
<path d="M38.9704 20.8163L31.2675 35.2354C31.2621 35.2461 31.2549 35.2558 31.2461 35.2639C31.2421 35.2692 31.2375 35.274 31.2322 35.2782L31.2154 35.2894C31.1948 35.302 31.1712 35.309 31.147 35.3097C31.1229 35.3103 31.099 35.3047 31.0777 35.2932L29.1277 34.2514C29.1061 34.2404 29.0878 34.2238 29.0746 34.2034C29.0614 34.183 29.0539 34.1594 29.0527 34.1352V34.1149C29.0533 34.1083 29.0547 34.1017 29.0569 34.0954C29.0588 34.0835 29.0629 34.0721 29.0689 34.0617L36.7717 19.6429C36.7888 19.6112 36.8176 19.5875 36.8521 19.5771C36.8865 19.5666 36.9237 19.5702 36.9555 19.587L38.9126 20.6325C38.9285 20.6408 38.9426 20.6521 38.954 20.6658C38.9655 20.6795 38.9742 20.6954 38.9796 20.7125C38.9849 20.7295 38.9869 20.7475 38.9853 20.7653C38.9837 20.7831 38.9786 20.8004 38.9704 20.8163Z" fill="#575B6D"/>
<path d="M33.8731 24.9491C33.7683 24.8931 33.6379 24.9327 33.5819 25.0375C33.5259 25.1424 33.5655 25.2728 33.6703 25.3288L35.9548 26.5487C36.0596 26.6047 36.19 26.5651 36.246 26.4603C36.302 26.3554 36.2624 26.225 36.1576 26.169L33.8731 24.9491Z" fill="#DBD8DD"/>
<path d="M33.2398 26.1344C33.135 26.0784 33.0046 26.118 32.9486 26.2228C32.8926 26.3277 32.9322 26.4581 33.037 26.5141L35.3215 27.734C35.4263 27.79 35.5568 27.7504 35.6127 27.6456C35.6687 27.5407 35.6291 27.4103 35.5243 27.3543L33.2398 26.1344Z" fill="#DBD8DD"/>
<path d="M31.2462 35.264C31.2422 35.2693 31.2376 35.2741 31.2324 35.2782L31.2155 35.2895L29.0322 36.7778L29.0544 34.1352V34.115C29.0549 34.1083 29.0563 34.1018 29.0585 34.0955L31.2462 35.264Z" fill="#828A9E"/>
</svg>
