<svg width="32" height="32" viewBox="0 0 32 32" fill="none" xmlns="http://www.w3.org/2000/svg">
<path d="M12.3469 24.0017C19.7783 24.0017 23.8423 17.8448 23.8423 12.5064C23.8423 12.3316 23.8386 12.1574 23.8306 11.9839C24.6195 11.4134 25.3051 10.702 25.846 9.8922C25.1223 10.214 24.3432 10.4307 23.526 10.5285C24.3598 10.0282 25.0004 9.23682 25.3026 8.29343C24.5217 8.7562 23.6577 9.09282 22.7371 9.27435C21.9998 8.48912 20.95 7.99805 19.7881 7.99805C17.5568 7.99805 15.7475 9.80728 15.7475 12.038C15.7475 12.355 15.7832 12.6633 15.8521 12.9593C12.4946 12.7907 9.51676 11.1827 7.52476 8.73836C7.17768 9.33528 6.97768 10.0288 6.97768 10.7691C6.97768 12.171 7.69091 13.4085 8.77583 14.1322C8.11307 14.1119 7.4903 13.9297 6.94568 13.627C6.94507 13.6436 6.94507 13.6608 6.94507 13.6787C6.94507 15.6356 8.33768 17.2688 10.1863 17.6393C9.84722 17.7316 9.48968 17.7814 9.12107 17.7814C8.86076 17.7814 8.60783 17.7556 8.36168 17.7088C8.87614 19.3137 10.3672 20.4817 12.1358 20.515C10.7531 21.5987 9.01091 22.2442 7.11799 22.2442C6.79184 22.2442 6.4706 22.2257 6.1543 22.1882C7.94199 23.3328 10.0651 24.0017 12.3469 24.0017Z" fill="url(#paint0_linear)"/>
<path d="M16 32C7.17723 32 0 24.8228 0 16C0 7.17723 7.17723 0 16 0C24.8228 0 32 7.17723 32 16C32 24.8228 24.8228 32 16 32ZM16 1.23077C7.85662 1.23077 1.23077 7.85662 1.23077 16C1.23077 24.1434 7.85662 30.7692 16 30.7692C24.1434 30.7692 30.7692 24.1434 30.7692 16C30.7692 7.85662 24.1434 1.23077 16 1.23077Z" fill="url(#paint1_linear)"/>
<defs>
<linearGradient id="paint0_linear" x1="16.0001" y1="7.99805" x2="16.0002" y2="32.0497" gradientUnits="userSpaceOnUse">
<stop offset="0.0759424" stop-color="#E480E5"/>
<stop offset="0.234217" stop-color="#E480E5"/>
<stop offset="0.663437" stop-color="#9349DD"/>
<stop offset="0.781473" stop-color="#9349DD"/>
</linearGradient>
<linearGradient id="paint1_linear" x1="16" y1="0" x2="16.0001" y2="48.0923" gradientUnits="userSpaceOnUse">
<stop offset="0.0759424" stop-color="#E480E5"/>
<stop offset="0.234217" stop-color="#E480E5"/>
<stop offset="0.663437" stop-color="#9349DD"/>
<stop offset="0.781473" stop-color="#9349DD"/>
</linearGradient>
</defs>
</svg>
