<svg width="32" height="32" viewBox="0 0 32 32" fill="none" xmlns="http://www.w3.org/2000/svg">
<path d="M21.0905 11.9305C21.0905 11.9305 19.6345 10.805 17.9095 10.676L17.7585 10.984C19.3155 11.359 20.0265 11.9025 20.7715 12.569C19.489 11.914 18.218 11.236 16.0005 11.236C13.783 11.236 12.5115 11.9135 11.2295 12.569C11.9745 11.9025 12.8255 11.298 14.2425 10.984L14.0915 10.676C12.2825 10.8495 10.9105 11.9305 10.9105 11.9305C10.9105 11.9305 9.28 14.277 9 18.8635C10.6465 20.745 13.1385 20.7565 13.1385 20.7565L13.6535 20.0675C12.7745 19.765 11.772 19.222 10.9095 18.2365C11.94 19.0095 13.491 19.6365 16 19.6365C18.509 19.6365 20.06 19.0095 21.0905 18.2365C20.228 19.222 19.2255 19.7655 18.3465 20.0675L18.8615 20.7565C18.8615 20.7565 21.3535 20.7455 23 18.8635C22.72 14.277 21.0905 11.9305 21.0905 11.9305ZM14.04 17.956C13.424 17.956 12.92 17.329 12.92 16.556C12.92 15.783 13.424 15.156 14.04 15.156C14.656 15.156 15.16 15.783 15.16 16.556C15.16 17.329 14.656 17.956 14.04 17.956ZM17.96 17.956C17.344 17.956 16.84 17.329 16.84 16.556C16.84 15.783 17.344 15.156 17.96 15.156C18.576 15.156 19.08 15.783 19.08 16.556C19.08 17.329 18.576 17.956 17.96 17.956Z" fill="url(#paint0_linear)"/>
<path d="M16 32C7.17723 32 0 24.8228 0 16C0 7.17723 7.17723 0 16 0C24.8228 0 32 7.17723 32 16C32 24.8228 24.8228 32 16 32ZM16 1.23077C7.85662 1.23077 1.23077 7.85662 1.23077 16C1.23077 24.1434 7.85662 30.7692 16 30.7692C24.1434 30.7692 30.7692 24.1434 30.7692 16C30.7692 7.85662 24.1434 1.23077 16 1.23077Z" fill="url(#paint1_linear)"/>
<defs>
<linearGradient id="paint0_linear" x1="16" y1="10.4744" x2="16" y2="20.9581" gradientUnits="userSpaceOnUse">
<stop stop-color="#1A6DFF"/>
<stop offset="1" stop-color="#C822FF"/>
</linearGradient>
<linearGradient id="paint1_linear" x1="16" y1="-0.64" x2="16" y2="32.64" gradientUnits="userSpaceOnUse">
<stop stop-color="#1A6DFF"/>
<stop offset="1" stop-color="#C822FF"/>
</linearGradient>
</defs>
</svg>
