<svg width="40" height="40" viewBox="0 0 40 41" fill="none" xmlns="http://www.w3.org/2000/svg">
<path d="M19.8681 0.674683C8.91694 0.674683 0.0395508 9.55207 0.0395508 20.5032C0.0395508 31.4543 8.91694 40.3317 19.8681 40.3317C30.8192 40.3317 39.6966 31.4543 39.6966 20.5032C39.6966 9.55207 30.8192 0.674683 19.8681 0.674683ZM15.0142 28.7217H10.9989V15.8001H15.0142V28.7217ZM12.9818 14.2138C11.7136 14.2138 10.8936 13.3154 10.8936 12.2041C10.8936 11.0702 11.7384 10.1986 13.0334 10.1986C14.3285 10.1986 15.1216 11.0702 15.1464 12.2041C15.1464 13.3154 14.3285 14.2138 12.9818 14.2138ZM29.679 28.7217H25.6638V21.5607C25.6638 19.8939 25.0813 18.762 23.6293 18.762C22.5201 18.762 21.8612 19.5283 21.57 20.2657C21.4626 20.528 21.4357 20.8998 21.4357 21.2695V28.7196H17.4184V19.9207C17.4184 18.3076 17.3668 16.9588 17.3131 15.798H20.8016L20.9855 17.5929H21.066C21.5948 16.7502 22.8898 15.5068 25.0565 15.5068C27.6982 15.5068 29.679 17.2769 29.679 21.0815V28.7217Z" fill="#0E76A8"/>
</svg>
