<svg width="39" height="40" viewBox="0 0 39 40" fill="none" xmlns="http://www.w3.org/2000/svg">
<g clip-path="url(#clip0)">
<path d="M38.8464 19.8486C38.8464 30.51 30.2039 39.1524 19.5426 39.1524C16.3105 39.1524 13.2645 38.3583 10.5888 36.9551C9.67801 36.4767 8.80967 35.9282 7.9911 35.3162C7.564 34.9969 7.15104 34.6605 6.7531 34.3076C2.75779 30.7715 0.23877 25.6042 0.23877 19.8486C0.23877 9.18727 8.88124 0.5448 19.5426 0.5448C30.2039 0.5448 38.8464 9.18727 38.8464 19.8486Z" fill="#FFE152"/>
<path d="M29.0532 34.4452V36.6508C27.1265 37.7442 24.9931 38.5147 22.7262 38.8906C22.2399 38.971 21.7483 39.034 21.2511 39.0773C20.9415 39.105 20.6295 39.1247 20.315 39.1365C20.059 39.1474 19.8013 39.1521 19.5429 39.1521C18.9662 39.1521 18.3965 39.1271 17.8331 39.0773C16.4039 38.9521 15.0195 38.6708 13.6967 38.2508C12.4124 37.8434 11.1856 37.3047 10.0327 36.6508V34.4452C10.0327 31.1267 12.2863 28.3344 15.3473 27.5155C15.4593 27.4858 15.5718 27.4581 15.6861 27.4336C15.9903 27.3674 16.3023 27.3217 16.6198 27.2958C16.8136 27.2799 17.0089 27.2722 17.2068 27.2722H21.8785C22.4007 27.2722 22.9097 27.3273 23.3998 27.4336C23.4281 27.4392 23.4564 27.4454 23.4841 27.4519C23.5668 27.4707 23.6496 27.4911 23.7306 27.5132C23.733 27.514 23.7347 27.514 23.7371 27.5149C24.5447 27.7308 25.2961 28.0846 25.9645 28.5485C27.8311 29.844 29.0532 32.0019 29.0532 34.4452Z" fill="#3D4159"/>
<path d="M23.7541 27.4336L23.7367 27.5149L21.2507 39.0773C20.6881 39.1271 20.1178 39.1521 19.5426 39.1521C18.9658 39.1521 18.3962 39.1271 17.8327 39.0773L15.347 27.5155L15.3296 27.4336H23.7541Z" fill="#F2F0EC"/>
<path d="M21.4683 29.8605L19.5425 32.9492L17.6167 29.8605" fill="#F74F4F"/>
<path d="M21.3205 39.0705C20.7349 39.1247 20.1417 39.1524 19.5429 39.1524C18.9432 39.1524 18.3499 39.1247 17.7646 39.0711L19.5429 32.1456L21.3205 39.0705Z" fill="#F74F4F"/>
<path d="M19.5417 30.2089L16.3122 32.0036L15.3296 27.4339L17.3364 26.2519" fill="#D8D5D0"/>
<path d="M19.542 30.2089L22.7718 32.0036L23.7541 27.4339L21.7473 26.2519" fill="#D8D5D0"/>
<path d="M25.964 28.1547L23.8759 33.6007H24.9003L22.7257 38.8906C22.2394 38.971 21.7477 39.034 21.2505 39.0773C20.941 39.105 20.629 39.1247 20.3145 39.1365L23.7539 27.0398L25.964 28.1547Z" fill="#2A2F4F"/>
<path d="M13.0962 28.1547L15.184 33.6007H14.1598L16.3345 38.8906C16.8205 38.971 17.3121 39.034 17.8093 39.0773C18.1189 39.105 18.4311 39.1247 18.7454 39.1365L15.3298 27.1194L13.0962 28.1547Z" fill="#2A2F4F"/>
<path d="M22.1019 24.5087V27.6498C22.1019 28.7998 21.3438 29.7718 20.2993 30.0946C20.0604 30.1689 19.8056 30.2089 19.542 30.2089C18.1284 30.2089 16.9829 29.0634 16.9829 27.6498V24.5087H22.1019Z" fill="#EAB599"/>
<path d="M22.1017 27.451V27.6498C22.1017 28.7998 21.3435 29.7718 20.299 30.0946C19.3568 29.8051 18.6484 28.9856 18.5176 27.9833C18.6884 27.9936 18.8604 27.9989 19.033 27.9989C19.5173 27.9989 19.9921 27.9606 20.4543 27.8846C21.0242 27.793 21.5747 27.6463 22.1017 27.451Z" fill="#F6CAAE"/>
<path d="M12.5213 19.3611C12.5213 20.5458 11.6556 21.5284 10.5222 21.7108C10.3985 21.7308 10.2709 21.7411 10.141 21.7411C8.82614 21.7411 7.76074 20.676 7.76074 19.3611C7.76074 18.0462 8.82614 16.9808 10.141 16.9808C10.2709 16.9808 10.3985 16.9914 10.5222 17.0115C11.6556 17.1938 12.5213 18.1761 12.5213 19.3611Z" fill="#F6CAAE"/>
<path d="M12.5214 19.3611C12.5214 20.5458 11.6557 21.5284 10.5223 21.7108C10.3164 20.962 10.2065 20.1741 10.2065 19.3611C10.2065 18.5479 10.3164 17.7599 10.5223 17.0115C11.6557 17.1938 12.5214 18.1761 12.5214 19.3611Z" fill="#EAB599"/>
<path d="M10.9919 19.3611C10.9919 19.8309 10.611 20.2118 10.1412 20.2118C9.67138 20.2118 9.29053 19.8309 9.29053 19.3611C9.29053 18.8913 9.67138 18.5105 10.1412 18.5105C10.611 18.5105 10.9919 18.8913 10.9919 19.3611Z" fill="#EAB599"/>
<path d="M26.5635 19.3611C26.5635 20.5458 27.4289 21.5284 28.5623 21.7108C28.6863 21.7308 28.8136 21.7411 28.9438 21.7411C30.2586 21.7411 31.3237 20.676 31.3237 19.3611C31.3237 18.0462 30.2586 16.9808 28.9438 16.9808C28.8136 16.9808 28.6863 16.9914 28.5623 17.0115C27.4289 17.1938 26.5635 18.1761 26.5635 19.3611Z" fill="#F6CAAE"/>
<path d="M26.5635 19.3611C26.5635 20.5458 27.4289 21.5284 28.5623 21.7108C28.7682 20.962 28.8784 20.1741 28.8784 19.3611C28.8784 18.5479 28.7685 17.7599 28.5623 17.0115C27.4289 17.1938 26.5635 18.1761 26.5635 19.3611Z" fill="#EAB599"/>
<path d="M28.398 14.724V18.0963C28.398 22.5031 25.1785 26.1591 20.9632 26.8375C20.949 26.8398 20.934 26.8422 20.9199 26.8445C20.4716 26.9161 20.0115 26.9517 19.5417 26.9517C14.6512 26.9517 10.6865 22.9868 10.6865 18.0963V14.724C10.6865 13.6942 10.8621 12.7045 11.1867 11.7852C12.3979 8.33866 15.6818 5.86795 19.5417 5.86795H19.5425C20.0115 5.86795 20.4722 5.90418 20.9213 5.97517C25.1573 6.63703 28.398 10.3021 28.398 14.724Z" fill="#EAB599"/>
<path d="M29.7936 19.3611C29.7936 19.8309 29.4128 20.2118 28.943 20.2118C28.4731 20.2118 28.0923 19.8309 28.0923 19.3611C28.0923 18.8913 28.4731 18.5105 28.943 18.5105C29.4128 18.5105 29.7936 18.8913 29.7936 19.3611Z" fill="#EAB599"/>
<path d="M28.3982 14.724V18.0963C28.3982 22.5031 25.1787 26.1591 20.9634 26.8375C20.9492 26.8398 20.9342 26.8422 20.9201 26.8445C16.6841 26.1827 13.4443 22.5173 13.4443 18.0963V14.724C13.4443 10.3022 16.685 6.63705 20.9216 5.97519C25.1575 6.63705 28.3982 10.3022 28.3982 14.724Z" fill="#F6CAAE"/>
<path d="M17.6561 17.5806C17.6561 18.1355 17.2063 18.585 16.6514 18.585C16.0968 18.585 15.647 18.1355 15.647 17.5806C15.647 17.0256 16.0968 16.5758 16.6514 16.5758C17.2063 16.5758 17.6561 17.0256 17.6561 17.5806Z" fill="#3D4159"/>
<path d="M23.4379 17.5806C23.4379 18.1355 22.9881 18.585 22.4331 18.585C21.8785 18.585 21.4287 18.1355 21.4287 17.5806C21.4287 17.0256 21.8785 16.5758 22.4331 16.5758C22.9881 16.5758 23.4379 17.0256 23.4379 17.5806Z" fill="#3D4159"/>
<path d="M17.4515 17.4032C17.4515 17.6409 17.2589 17.8336 17.0212 17.8336C16.7835 17.8336 16.5908 17.6409 16.5908 17.4032C16.5908 17.1655 16.7835 16.9729 17.0212 16.9729C17.2589 16.9729 17.4515 17.1655 17.4515 17.4032Z" fill="white"/>
<path d="M23.2819 17.4032C23.2819 17.6409 23.0889 17.8336 22.8512 17.8336C22.6135 17.8336 22.4209 17.6409 22.4209 17.4032C22.4209 17.1655 22.6135 16.9729 22.8512 16.9729C23.0889 16.9729 23.2819 17.1655 23.2819 17.4032Z" fill="white"/>
<path d="M20.5469 19.7161H18.5378C18.2983 19.7161 18.1045 19.5219 18.1045 19.2825C18.1045 19.0433 18.2983 18.8492 18.5378 18.8492H20.5469C20.7864 18.8492 20.9802 19.0433 20.9802 19.2825C20.9802 19.5219 20.7864 19.7161 20.5469 19.7161Z" fill="#EAB599"/>
<path d="M19.5426 22.4578C18.801 22.4578 18.0596 22.2719 17.3836 21.9005C17.1927 21.7956 17.1232 21.5561 17.228 21.3653C17.3329 21.1747 17.5724 21.1052 17.763 21.2097C18.8772 21.8224 20.2077 21.8224 21.322 21.2097C21.5126 21.1052 21.7521 21.1747 21.8569 21.3653C21.9618 21.5561 21.8923 21.7956 21.7014 21.9005C21.0257 22.2719 20.284 22.4578 19.5426 22.4578Z" fill="#EAB599"/>
<path d="M28.398 11.6636V15.1181H26.7497V12.4129L14.8521 10.202L12.3348 9.73396V15.1181H10.6865V11.6636C10.6865 7.7257 13.8783 4.53363 17.8156 4.53363H21.2689C21.3626 4.53363 21.4563 4.5354 21.5502 4.54011C25.3564 4.6865 28.398 7.81937 28.398 11.6636Z" fill="#2A2F4F"/>
<path d="M28.3979 11.6636V15.1181H26.7496V12.4129L14.8521 10.202C15.5077 7.05352 18.2394 4.66764 21.5502 4.5401C25.3564 4.68649 28.3979 7.81936 28.3979 11.6636Z" fill="#3D4159"/>
<path d="M17.4748 29.4737L16.6821 30.5043L14.5177 31.0819L13.2397 31.4222L12.2423 30.5029C12.2146 30.4766 12.1864 30.4516 12.1595 30.4248C9.34834 27.8009 8.0199 25.7382 6.79545 22.0925C6.78278 22.0571 6.771 22.0209 6.75922 21.9847L6.33447 20.6963L7.17454 19.6736L8.59575 17.9425L9.86056 17.6471L10.0567 18.1458L10.609 19.5508L11.4087 21.5853L10.3678 22.5355L9.66498 23.1767C9.98722 24.2097 11.5537 26.6427 12.3604 27.3644L13.235 26.9903L14.5304 26.4339L16.0518 28.0059L17.1021 29.0899L17.103 29.0893L17.4748 29.4737Z" fill="#66BAED"/>
<path d="M14.5301 26.4342L13.2344 26.9903L16.6818 30.504L17.4742 29.474L14.5301 26.4342Z" fill="#F2F0EC"/>
<path d="M11.4086 21.5853L10.3662 22.5346L8.59473 17.9416L9.86042 17.6471L11.4086 21.5853Z" fill="#F2F0EC"/>
<path d="M14.5177 31.082L13.2397 31.4222L12.2423 30.5029C12.2146 30.4767 12.1864 30.4516 12.1595 30.4248C9.34834 27.8009 8.0199 25.7382 6.79545 22.0925C6.78278 22.0572 6.771 22.0209 6.75922 21.9847L6.33447 20.6963L7.17454 19.6736C7.17454 19.6736 7.44229 26.6531 14.5171 31.0811C14.5171 31.0811 14.5177 31.0811 14.5177 31.082Z" fill="#2BA1CF"/>
<path d="M12.1383 26.494L10.9403 27.6917C10.621 28.011 10.2027 28.1709 9.78448 28.1703C9.5185 28.1709 9.25222 28.1064 9.01157 27.9771C8.87401 27.9029 8.74471 27.8083 8.62836 27.692C7.98977 27.0534 7.98977 26.0183 8.62836 25.3797L9.82601 24.1818C10.4646 23.5435 11.4997 23.5435 12.1383 24.1818C12.2546 24.2984 12.3494 24.4274 12.4234 24.5653C12.7562 25.1841 12.6602 25.9718 12.1383 26.494Z" fill="#EAB599"/>
<path d="M12.1383 26.494L10.9404 27.6917C10.6211 28.011 10.2028 28.1709 9.78456 28.1703C9.51858 28.1709 9.25231 28.1064 9.01166 27.9771C8.67911 27.3582 8.77483 26.5703 9.29678 26.0484L10.4947 24.8504C11.0167 24.3285 11.8046 24.2324 12.4235 24.5653C12.7563 25.1841 12.6603 25.9718 12.1383 26.494Z" fill="#F6CAAE"/>
<path d="M10.5889 36.9551C9.67818 36.4767 8.80984 35.9283 7.99128 35.3162C7.56418 34.9969 7.15121 34.6605 6.75327 34.3076C6.68405 31.8958 7.08347 29.4737 7.95034 27.1794C8.29614 27.3102 8.64283 27.441 8.98864 27.5718C9.73562 27.8537 10.4826 28.1367 11.2302 28.4186C10.1951 31.1583 9.98157 34.1223 10.5889 36.9551Z" fill="#2A2F4F"/>
<path d="M10.5891 36.9551C9.67839 36.4767 8.81005 35.9282 7.99148 35.3162C7.77558 32.7105 8.10813 30.0711 8.98884 27.5718C9.73583 27.8537 10.4828 28.1367 11.2304 28.4186C10.1953 31.1583 9.98178 34.1223 10.5891 36.9551Z" fill="#3D4159"/>
<path d="M22.4688 1.82669H36.8364V12.6268H22.4688V1.82669Z" fill="#F2F0EC"/>
<path d="M29.7685 11.9516L28.2256 15.6159L34.9756 11.759L29.7685 11.9516Z" fill="#F2F0EC"/>
<path d="M27.9782 7.22673C27.9782 7.78579 27.5249 8.23911 26.9658 8.23911C26.4064 8.23911 25.9531 7.78579 25.9531 7.22673C25.9531 6.66767 26.4064 6.21436 26.9658 6.21436C27.5249 6.21436 27.9782 6.66767 27.9782 7.22673Z" fill="#3D4159"/>
<path d="M30.6654 7.22673C30.6654 7.78579 30.2121 8.23911 29.653 8.23911C29.0939 8.23911 28.6406 7.78579 28.6406 7.22673C28.6406 6.66767 29.0939 6.21436 29.653 6.21436C30.2121 6.21436 30.6654 6.66767 30.6654 7.22673Z" fill="#3D4159"/>
<path d="M33.3527 7.22673C33.3527 7.78579 32.8994 8.23911 32.34 8.23911C31.781 8.23911 31.3276 7.78579 31.3276 7.22673C31.3276 6.66767 31.781 6.21436 32.34 6.21436C32.8994 6.21436 33.3527 6.66767 33.3527 7.22673Z" fill="#3D4159"/>
</g>
<defs>
<clipPath id="clip0">
<rect width="38.6076" height="38.6076" fill="white" transform="translate(0.23877 0.5448)"/>
</clipPath>
</defs>
</svg>
